<?xml version="1.0" standalone="no"?>
<!DOCTYPE svg PUBLIC "-//W3C//DTD SVG 20010904//EN"
 "http://www.w3.org/TR/2001/REC-SVG-20010904/DTD/svg10.dtd">
<svg version="1.0" xmlns="http://www.w3.org/2000/svg"
 width="1280.000000pt" height="848.000000pt" viewBox="0 0 1280.000000 848.000000"
 preserveAspectRatio="xMidYMid meet">
<metadata>
Created by potrace 1.16, written by Peter Selinger 2001-2019
</metadata>
<g transform="translate(0.000000,848.000000) scale(0.100000,-0.100000)"
fill="#000000" stroke="none">
<path d="M430 8470 c0 -5 -3 -9 -7 -9 -19 3 -27 -2 -15 -10 11 -7 11 -17 2
-52 -7 -24 -18 -51 -25 -59 -6 -8 -27 -43 -45 -77 -18 -35 -36 -63 -40 -63 -4
0 -25 -23 -46 -50 -67 -88 -180 -124 -234 -75 -18 16 -18 12 -19 -77 0 -51 3
-88 7 -82 4 6 61 30 127 54 183 65 184 66 270 110 107 55 145 92 145 142 0 21
5 38 11 38 7 0 9 12 6 33 -3 17 -1 53 5 80 9 46 10 47 47 47 31 0 40 5 49 25
17 36 15 41 -7 21 -24 -22 -61 -29 -61 -11 0 7 8 16 18 18 9 3 1 5 -19 6 -25
1 -39 -4 -43 -14 -4 -11 -13 -14 -33 -9 -16 4 -29 11 -31 16 -5 12 -62 10 -62
-2z m99 -39 c11 -7 11 -17 1 -57 -6 -27 -14 -74 -16 -104 -6 -64 -24 -97 -62
-111 -15 -6 -43 -20 -62 -32 -40 -25 -140 -67 -140 -60 0 11 74 89 99 104 18
11 28 27 32 54 4 21 14 44 22 50 9 6 23 34 32 61 31 93 37 104 59 104 11 0 27
-4 35 -9z"/>
<path d="M760 8461 c-14 -26 -13 -130 2 -185 l12 -44 -54 -63 c-51 -58 -55
-60 -60 -38 -4 15 -9 19 -13 12 -4 -6 -4 -19 -1 -28 4 -9 -2 -28 -14 -44 -11
-16 -27 -44 -35 -64 -17 -38 -105 -114 -172 -147 -52 -25 -152 -51 -170 -44
-8 3 -17 21 -21 40 -9 50 -26 54 -18 5 6 -36 4 -41 -13 -41 -11 0 -27 -8 -36
-17 -9 -10 -50 -36 -91 -57 l-76 -40 0 -63 c0 -35 2 -63 5 -63 3 0 32 16 63
37 77 49 102 58 257 97 102 26 145 42 180 68 141 100 137 98 195 98 30 0 80 7
110 15 88 24 234 45 308 45 74 0 132 19 232 77 30 17 75 36 99 43 51 13 53 12
76 -64 8 -26 26 -69 40 -93 14 -25 25 -50 25 -56 0 -19 138 -127 163 -127 36
0 137 -83 137 -113 0 -17 -5 -18 -62 -13 -35 4 -80 9 -100 12 -34 5 -39 3 -61
-34 -39 -60 -185 -189 -252 -222 -33 -16 -100 -37 -150 -46 -49 -9 -133 -27
-185 -39 -52 -13 -102 -23 -110 -22 -8 1 -44 -5 -80 -15 -120 -30 -254 -52
-340 -54 -113 -4 -475 -55 -527 -75 -18 -7 -23 -16 -23 -44 l0 -36 63 7 c34 4
67 10 72 15 6 4 62 17 125 30 91 17 135 20 211 16 59 -4 100 -2 106 4 17 17
266 58 354 59 39 0 62 5 77 18 11 10 73 30 144 45 67 15 152 35 188 44 36 9
79 18 97 21 17 2 40 12 52 23 11 10 37 23 58 28 21 5 80 26 131 45 52 20 119
41 150 46 104 17 148 26 159 33 35 22 109 24 197 7 88 -18 93 -18 166 0 112
28 137 37 169 59 16 12 34 21 40 21 6 0 11 4 11 8 0 10 65 42 85 42 7 0 15 4
17 8 9 21 69 50 118 57 30 4 65 13 77 21 12 8 30 14 39 14 9 0 28 7 42 14 15
8 53 18 84 21 31 3 62 13 69 21 18 22 4 28 -23 10 -12 -9 -32 -16 -43 -16 -15
0 -12 5 15 21 42 25 36 19 44 47 5 14 3 22 -4 22 -7 0 -14 -9 -17 -20 -6 -21
-50 -50 -78 -50 -8 0 -15 -3 -15 -8 0 -9 -63 -44 -76 -41 -5 1 -29 -7 -54 -19
-71 -34 -82 -30 -56 21 21 39 9 34 -35 -17 -21 -24 -69 -59 -108 -80 l-70 -37
21 48 c11 26 27 55 34 64 8 8 14 20 14 26 0 6 8 25 18 42 13 24 31 36 82 52
36 12 86 32 112 45 26 13 75 31 110 39 34 8 84 29 112 49 100 67 361 178 498
210 73 17 113 33 163 66 61 39 69 42 113 36 50 -6 140 6 151 20 3 5 26 11 51
12 25 2 59 10 75 17 41 18 127 35 180 35 25 0 45 5 45 10 0 6 -7 10 -15 10 -8
0 -15 5 -15 10 0 6 12 8 28 5 19 -4 22 -3 8 3 -16 7 -12 13 33 47 28 21 58 40
67 41 30 5 24 11 -11 12 -27 1 -42 -6 -67 -30 -30 -29 -33 -30 -36 -13 -2 11
-8 25 -14 30 -6 7 -7 -2 -3 -26 6 -34 5 -37 -29 -53 -20 -9 -41 -14 -48 -10
-6 4 -8 3 -5 -3 4 -6 -10 -15 -34 -21 l-41 -10 22 23 c12 12 17 26 12 29 -5 3
-18 -4 -28 -15 -10 -12 -27 -25 -36 -30 -15 -8 -17 -7 -9 14 5 13 21 41 35 62
33 48 33 52 -4 53 -28 1 -36 -10 -31 -41 2 -15 -28 -77 -38 -77 -6 0 -22 18
-36 40 -31 49 -52 54 -26 6 11 -19 17 -37 13 -42 -4 -4 -2 -4 4 -1 15 9 39
-19 24 -28 -5 -3 -33 -10 -61 -14 l-50 -8 6 28 c9 41 -13 37 -31 -6 -14 -35
-45 -47 -59 -24 -4 6 -14 8 -22 5 -10 -4 -8 3 6 20 12 15 21 31 21 35 0 5 11
32 24 59 18 37 21 50 11 50 -8 0 -20 -9 -29 -21 l-14 -21 -12 22 c-6 12 -14
19 -17 16 -4 -3 2 -21 12 -40 l19 -34 -34 -56 c-26 -42 -40 -56 -57 -56 -29 0
-29 2 7 42 29 31 39 58 22 58 -4 0 -16 -14 -26 -31 -23 -39 -73 -62 -219 -99
-62 -16 -134 -38 -160 -49 -27 -12 -51 -21 -53 -21 -8 0 60 91 77 104 9 6 35
43 59 81 24 39 50 78 58 88 13 15 13 17 -1 17 -9 0 -40 -37 -72 -85 -34 -51
-60 -83 -67 -79 -6 4 -8 3 -4 -4 3 -6 2 -14 -4 -17 -6 -4 -26 -29 -44 -57 -34
-50 -38 -51 -55 -5 -9 23 -7 28 24 47 41 26 59 79 49 146 -10 68 -21 61 -20
-15 1 -71 -12 -98 -56 -122 -14 -7 -18 -1 -26 38 -12 53 5 93 39 93 11 0 19 7
19 15 0 8 -5 15 -11 15 -5 0 -8 4 -5 9 7 11 -17 21 -50 21 -18 0 -24 -5 -24
-21 0 -18 -2 -19 -15 -9 -8 7 -12 17 -9 22 4 5 -6 8 -22 6 -25 -3 -30 -9 -37
-48 -5 -25 -13 -49 -18 -55 -11 -11 -11 5 0 63 7 33 5 42 -5 42 -10 0 -14 -16
-14 -58 l0 -58 -77 -16 c-43 -9 -87 -20 -98 -23 -11 -4 18 29 65 73 58 55 79
81 67 82 -10 0 -29 -13 -43 -29 -14 -17 -48 -49 -76 -73 l-52 -43 40 60 c59
87 58 85 35 85 -13 0 -21 -7 -21 -16 0 -16 -66 -114 -77 -114 -15 0 12 79 35
103 20 21 22 27 10 27 -9 0 -19 -6 -22 -12 -5 -10 -7 -10 -12 0 -13 28 -22 8
-28 -68 -4 -44 -10 -80 -14 -80 -4 0 -23 36 -42 80 -19 44 -40 80 -47 80 -18
0 -18 0 27 -85 22 -42 40 -86 40 -98 0 -28 -18 -47 -37 -40 -18 7 -47 -20 -78
-73 -14 -24 -28 -44 -32 -44 -3 0 -4 55 -2 122 3 86 1 122 -8 125 -8 3 -10 -8
-6 -36 3 -23 2 -41 -3 -41 -11 0 -94 79 -94 89 0 3 14 15 30 24 17 10 30 22
30 28 0 16 -17 10 -48 -16 -40 -33 -45 -32 -38 10 4 22 3 35 -4 35 -5 0 -10
-9 -10 -19 0 -32 -17 -34 -28 -4 l-10 28 -2 -25 c-1 -14 -2 -34 -1 -45 1 -25
-4 -32 -56 -73 l-43 -33 5 28 c3 15 9 54 14 86 l8 57 -51 0 c-28 0 -71 -7 -96
-16 -41 -14 -45 -14 -57 2 -7 10 -16 15 -19 11 -4 -4 -1 -13 6 -22 10 -12 8
-16 -16 -25 -129 -49 -210 -86 -254 -115 -75 -51 -86 -48 -94 26 -6 64 -1 105
18 128 8 10 6 12 -9 10 -12 -3 -21 -14 -23 -29 -6 -39 -20 -47 -31 -17 -6 15
-15 27 -21 27 -14 0 -13 -7 7 -37 17 -26 17 -26 -4 -14 -25 13 -33 14 -33 4 0
-5 18 -16 40 -26 35 -16 40 -23 39 -50 l-1 -32 -10 28 c-5 15 -14 27 -19 27
-10 0 11 -52 26 -62 11 -8 11 -9 -37 -31 l-38 -17 -6 28 c-4 15 -17 47 -30 72
-13 25 -24 55 -24 67 0 13 -6 23 -14 23 -8 0 -18 9 -21 20 -3 11 -10 20 -15
20 -5 0 -7 -7 -4 -15 4 -9 0 -15 -7 -15 -11 -1 -11 -3 1 -13 22 -18 98 -138
105 -167 5 -23 1 -27 -52 -47 -33 -13 -68 -23 -80 -23 -12 0 -25 -5 -28 -11
-10 -15 -51 25 -83 80 -14 24 -28 39 -30 33 -5 -15 33 -77 65 -106 l25 -23
-42 -11 c-36 -9 -41 -8 -36 5 27 71 11 85 -21 19 -13 -26 -31 -47 -45 -52 -13
-4 -27 -13 -33 -20 -5 -7 -46 -31 -90 -53 -58 -30 -92 -41 -125 -41 -52 0
-278 -26 -300 -34 -35 -13 -109 -23 -122 -15 -10 6 -3 18 27 49 22 22 44 39
50 36 7 -2 9 19 7 63 l-4 66 59 52 c132 119 244 193 291 193 20 0 31 4 27 10
-3 6 -15 10 -27 10 -14 0 -18 5 -14 15 4 12 -4 15 -45 15 -45 0 -54 -4 -82
-35 -65 -73 -187 -136 -187 -95 0 5 -5 10 -10 10 -6 0 -8 -12 -4 -27 4 -22 3
-25 -5 -13 -15 21 -14 73 2 92 6 9 34 28 62 42 l50 26 -82 0 c-71 0 -84 -3
-93 -19z m1635 -101 c-14 -69 -18 -75 -53 -93 -15 -8 -47 -26 -72 -40 -45 -26
-201 -72 -221 -65 -22 7 56 87 106 108 28 12 60 33 73 46 13 13 32 24 42 24
11 0 20 6 20 14 0 8 23 33 52 56 45 36 53 39 58 24 4 -10 1 -43 -5 -74z m178
6 c18 -7 45 -28 61 -45 24 -25 31 -43 37 -96 8 -81 3 -108 -28 -141 -13 -14
-22 -29 -19 -32 3 -3 -8 -18 -24 -34 -17 -15 -30 -30 -30 -33 0 -3 -20 -32
-44 -65 l-44 -59 -11 44 c-22 89 -13 162 27 208 21 23 42 86 32 92 -5 3 -20
-20 -34 -52 l-26 -56 -20 38 c-11 22 -20 45 -20 52 0 16 -16 17 -25 2 -4 -5 0
-18 8 -27 20 -24 30 -66 32 -147 2 -38 6 -100 10 -136 6 -51 4 -69 -8 -80 -8
-8 -21 -28 -30 -44 -10 -21 -30 -35 -61 -47 -25 -9 -46 -13 -46 -8 0 4 6 11
13 14 10 5 10 7 0 12 -7 3 -13 12 -13 20 0 8 -5 14 -10 14 -6 0 -8 -10 -5 -23
4 -15 0 -28 -12 -39 -17 -15 -193 -72 -200 -64 -9 9 19 55 56 94 22 23 42 45
42 50 10 64 4 77 -21 47 -7 -8 -16 -15 -21 -15 -5 0 -9 7 -9 15 0 8 -4 15 -10
15 -5 0 -7 -6 -4 -14 3 -8 -8 -24 -27 -38 -31 -25 -31 -25 -14 -52 17 -26 17
-28 -6 -72 -25 -50 -66 -74 -126 -74 -31 0 -34 2 -32 28 4 56 0 75 -14 63 -10
-8 -22 -5 -46 14 l-33 24 40 11 c40 10 68 38 100 99 17 32 15 41 -8 41 -14 0
-20 -7 -20 -21 0 -30 -29 -86 -48 -94 -9 -4 -30 -11 -45 -16 -23 -6 -28 -5
-23 6 3 8 1 15 -3 15 -5 0 -11 -6 -14 -14 -15 -39 -170 70 -209 145 -27 52
-66 179 -54 179 5 0 23 -4 40 -10 146 -47 163 -50 223 -34 31 8 80 30 109 49
70 46 85 52 192 70 62 10 115 26 160 49 37 18 79 36 95 40 15 3 27 13 27 20 0
12 6 12 33 4 17 -6 40 -15 49 -19 10 -5 19 -9 21 -9 1 0 3 18 3 40 1 29 -3 40
-13 40 -8 0 -11 -5 -8 -10 11 -18 -14 -38 -40 -32 -14 2 -25 7 -25 11 1 5 129
99 138 101 1 0 17 -6 35 -14z m553 -98 c0 -40 -2 -63 -4 -50 -5 30 -13 28 -39
-12 -30 -47 -143 -126 -179 -126 -17 0 -34 -7 -40 -17 -6 -10 -49 -45 -95 -78
-46 -32 -116 -88 -155 -122 -82 -72 -121 -84 -110 -33 11 59 116 189 281 353
105 104 112 108 230 136 118 29 111 32 111 -51z m180 -62 c13 -37 13 -38 -28
-83 -24 -25 -44 -40 -46 -34 -7 20 -27 11 -45 -19 -10 -16 -25 -30 -33 -30 -8
0 -14 -4 -14 -9 0 -5 -8 -12 -17 -16 -15 -5 -16 -4 -5 6 6 7 12 33 12 59 0 75
11 120 29 121 9 0 39 11 66 24 28 13 54 22 59 21 5 -1 15 -19 22 -40z m-1248
12 c-18 -28 -73 -66 -156 -108 -55 -28 -67 -31 -89 -21 l-26 12 39 21 c41 22
54 35 54 56 0 7 -16 -3 -35 -23 -47 -46 -75 -47 -75 -2 l0 34 120 17 c66 9
131 21 143 26 35 14 40 12 25 -12z m1056 -70 c-1 -24 -3 -55 -3 -70 -1 -25
-62 -108 -80 -108 -3 0 -6 16 -6 37 0 20 -6 38 -12 40 -10 4 -12 -8 -7 -45 l5
-49 -88 -28 c-48 -16 -101 -37 -118 -46 -28 -17 -189 -79 -203 -79 -8 0 54 57
116 108 84 69 149 114 212 148 36 19 91 57 123 84 32 28 60 50 62 50 1 0 1
-19 -1 -42z m-505 -458 c-21 -44 -39 -84 -39 -89 0 -27 -90 -81 -174 -105 -99
-29 -123 -30 -216 -13 l-65 12 43 18 c24 10 56 19 70 21 15 2 36 7 47 12 22 8
109 94 124 122 6 10 43 26 93 40 46 13 99 32 118 42 19 11 36 19 37 20 1 0
-16 -36 -38 -80z m-741 -165 c4 -3 0 -18 -9 -33 -12 -22 -26 -29 -75 -38 -33
-6 -85 -22 -116 -37 -31 -15 -63 -27 -70 -27 -15 0 95 120 127 139 20 12 130
9 143 -4z"/>
<path d="M4660 8473 c2 -32 70 -61 70 -30 0 6 5 4 11 -5 12 -22 52 -23 72 -3
16 15 27 10 27 -12 0 -7 -8 -13 -17 -13 -17 -1 -17 -2 0 -14 15 -12 17 -18 7
-35 -6 -13 -16 -19 -23 -15 -9 5 -9 4 0 -6 16 -17 49 8 47 36 -1 17 3 20 20
16 17 -4 19 -2 9 9 -7 7 -13 22 -12 34 0 11 3 14 6 8 6 -15 33 -17 33 -3 0 18
18 10 23 -10 3 -13 0 -20 -9 -20 -8 0 -14 -4 -14 -9 0 -5 -3 -16 -6 -25 -4 -9
-1 -16 6 -16 6 0 20 -10 30 -22 l18 -23 -5 28 c-3 15 -9 27 -14 27 -5 0 -9 7
-9 16 0 10 6 14 18 10 9 -2 28 -8 41 -11 19 -6 23 -4 18 9 -5 11 -1 16 12 16
11 0 22 6 24 13 4 9 6 9 6 0 1 -6 -3 -14 -9 -18 -15 -9 0 -34 17 -28 12 5 14
1 8 -15 -3 -13 -2 -22 3 -22 11 0 11 -18 -1 -37 -5 -7 -1 -9 13 -6 22 6 26 23
9 40 -7 7 -8 19 -4 30 8 17 10 24 14 41 1 4 7 -4 13 -18 10 -24 11 -23 28 25
17 46 19 48 19 18 1 -17 -3 -33 -8 -35 -4 -1 -12 -13 -15 -25 -6 -17 -3 -23 8
-23 9 0 16 5 16 10 0 6 5 10 10 10 6 0 10 -20 10 -45 0 -30 5 -47 14 -51 8 -3
17 -17 21 -31 5 -23 27 -53 38 -53 7 0 19 71 13 77 -3 3 -10 -7 -16 -23 -10
-25 -13 -27 -21 -12 -7 12 -6 25 1 39 8 15 8 24 0 34 -16 19 -5 34 20 28 14
-4 20 0 20 11 0 24 19 19 29 -6 10 -26 4 -39 -8 -19 -7 10 -13 11 -27 2 -16
-9 -16 -10 -3 -11 20 0 31 -23 23 -45 -4 -9 0 -15 9 -15 18 0 52 -49 49 -70
-1 -8 4 -4 12 10 11 19 12 26 3 28 -7 1 -18 11 -25 22 -9 15 -9 22 3 34 8 8
20 16 27 18 6 2 11 20 10 41 -1 22 3 35 8 32 6 -3 10 -26 10 -51 0 -37 -3 -44
-20 -44 -11 0 -20 -7 -20 -16 0 -8 4 -13 9 -9 12 7 52 -35 45 -47 -3 -4 -9 -6
-14 -3 -5 3 -11 1 -14 -4 -9 -15 14 -25 27 -12 6 6 19 11 29 11 10 0 18 5 18
10 0 6 -9 10 -20 10 -15 0 -19 6 -18 28 1 15 -2 41 -6 57 -7 29 -7 29 9 10 9
-11 23 -19 31 -17 8 2 14 -2 14 -8 0 -5 -6 -10 -14 -10 -9 0 -14 -9 -13 -20 1
-12 8 -20 19 -20 13 0 18 -8 19 -32 1 -24 3 -27 6 -10 4 18 31 30 46 20 1 -1
12 4 24 10 14 8 20 18 17 27 -4 9 0 15 10 15 23 0 20 -37 -4 -50 -23 -12 -26
-33 -6 -49 10 -8 16 -8 25 3 6 8 11 18 10 22 -1 5 -1 18 0 29 2 19 2 19 20 -2
23 -28 31 -29 32 -5 0 14 2 14 9 -3 16 -38 12 -45 -22 -38 -18 3 -30 2 -26 -2
11 -11 -29 -38 -44 -29 -7 4 -8 3 -4 -4 4 -7 18 -9 32 -6 18 5 24 2 24 -11 0
-9 6 -15 13 -12 6 2 11 13 10 24 -2 16 3 20 22 17 14 -1 23 1 20 6 -3 4 2 11
11 14 9 3 12 11 8 18 -4 7 -4 10 1 6 4 -4 14 -3 22 3 10 9 13 8 13 -4 0 -9 -9
-21 -20 -27 -11 -6 -20 -20 -20 -31 0 -27 24 -19 28 9 2 12 9 22 17 22 7 0 20
3 29 6 11 4 16 1 16 -10 0 -9 -7 -16 -15 -16 -8 0 -15 -4 -15 -10 0 -5 5 -9
11 -7 6 1 13 -3 16 -9 2 -6 -9 -11 -27 -12 -17 0 -37 -6 -45 -12 -9 -8 -17 -7
-28 4 -14 15 -27 12 -27 -6 0 -5 4 -7 9 -3 6 3 15 -4 21 -16 9 -15 15 -18 23
-10 6 6 19 11 29 11 10 0 18 5 18 11 0 6 9 9 20 6 12 -3 20 0 20 8 0 7 7 18
15 25 8 7 15 25 15 41 0 29 21 52 28 31 6 -19 22 -14 22 7 0 14 5 18 20 14 11
-3 20 -12 20 -20 0 -8 -4 -11 -10 -8 -9 6 -12 -1 -9 -22 1 -5 4 -7 8 -6 4 1 5
-14 3 -32 -5 -38 -26 -63 -37 -44 -4 6 -2 15 5 19 19 12 4 57 -21 63 -18 5
-20 2 -16 -19 3 -16 -1 -28 -9 -31 -8 -3 -14 -12 -14 -21 0 -8 3 -12 6 -9 11
10 44 -12 44 -30 0 -14 4 -12 24 6 14 13 30 20 36 16 9 -6 9 -9 1 -15 -15 -9
-3 -40 16 -40 10 0 13 6 9 16 -5 12 -2 15 10 10 8 -3 19 -6 23 -6 5 0 20 -11
35 -25 28 -26 42 -99 23 -123 -8 -10 -5 -14 11 -19 12 -3 22 -9 22 -14 0 -5 7
-9 15 -9 8 0 15 5 15 10 0 6 -7 10 -16 10 -11 0 -14 6 -9 23 5 17 4 19 -4 7
-9 -13 -11 -13 -11 3 0 11 8 17 24 17 14 0 28 5 31 11 11 17 -3 23 -20 9 -19
-16 -54 -5 -37 12 7 7 13 21 13 32 1 19 2 19 6 3 4 -15 11 -17 31 -12 35 9 37
11 21 28 -12 12 -15 12 -26 -2 -11 -14 -12 -11 -13 17 0 17 -4 32 -9 32 -5 0
-7 -9 -4 -20 6 -23 -15 -27 -48 -10 -27 15 -24 33 4 26 17 -4 23 -1 23 13 0
13 -8 18 -28 19 -15 0 -28 -4 -28 -9 0 -13 -27 -11 -36 3 -5 8 -2 9 10 5 14
-5 17 -3 13 8 -4 8 1 21 9 30 18 17 34 20 34 5 0 -5 -4 -10 -10 -10 -5 0 -10
-5 -10 -11 0 -6 7 -8 16 -5 10 4 25 -1 35 -10 10 -9 22 -13 28 -10 5 4 11 -4
13 -16 l3 -23 14 24 c8 14 9 26 4 30 -12 7 -13 41 -1 41 4 0 8 -9 8 -20 0 -14
7 -20 22 -20 21 0 21 0 2 -21 -17 -19 -17 -21 -2 -30 10 -5 15 -16 12 -24 -4
-9 0 -15 10 -15 9 0 15 3 15 8 -3 20 3 31 26 46 23 15 25 15 35 -4 6 -11 8
-26 4 -32 -5 -7 -11 -3 -17 13 -7 18 -11 20 -15 9 -3 -8 -10 -19 -16 -23 -7
-6 -4 -7 7 -3 9 3 17 1 17 -4 0 -5 -8 -11 -17 -13 -14 -4 -12 -5 5 -6 12 0 22
-7 22 -16 0 -9 6 -12 15 -9 8 4 15 1 15 -5 0 -6 5 -11 10 -11 6 0 10 7 10 16
0 10 7 7 25 -12 24 -26 25 -26 25 -5 0 13 9 25 23 30 25 10 37 6 37 -12 0 -7
-4 -6 -10 3 -9 13 -10 13 -11 0 -1 -8 -1 -19 0 -24 1 -5 -8 -20 -21 -33 -19
-20 -20 -25 -8 -33 11 -7 16 -4 18 10 2 13 11 20 27 20 13 0 27 5 30 11 4 6
19 7 37 4 27 -6 29 -5 23 14 -9 29 8 26 31 -5 15 -20 25 -24 49 -20 21 4 26 3
15 -3 -8 -6 -11 -13 -7 -17 3 -4 13 -1 21 5 9 8 16 9 21 2 4 -7 12 -7 25 2 16
9 24 9 40 -1 25 -15 47 -15 54 1 5 10 7 10 12 0 3 -7 14 -13 25 -13 10 0 19
-5 19 -11 0 -7 -10 -9 -25 -5 -14 4 -25 2 -25 -4 0 -5 7 -10 15 -10 8 0 15 -6
15 -13 0 -18 39 -19 64 -1 23 16 66 19 66 4 0 -5 -7 -7 -15 -3 -18 6 -55 -23
-55 -45 0 -11 -3 -12 -14 -3 -11 9 -20 10 -35 1 -13 -6 -21 -7 -21 -1 0 5 8
12 18 14 9 3 5 4 -10 4 -28 -1 -47 -25 -25 -32 37 -11 109 -16 102 -6 -9 16
20 25 42 12 17 -9 16 -10 -6 -19 -15 -5 -20 -11 -13 -16 6 -4 9 -13 5 -21 -4
-11 -1 -13 10 -9 27 10 43 -7 22 -23 -17 -12 -17 -13 -2 -13 9 0 17 5 17 10 0
6 8 10 17 10 14 0 11 5 -9 21 -33 27 -28 52 8 39 16 -6 24 -6 24 1 0 6 5 7 10
4 6 -4 18 -1 26 6 11 9 18 9 26 1 7 -7 22 -12 34 -12 13 0 26 -6 30 -12 4 -7
4 -10 -1 -6 -4 4 -14 3 -22 -3 -9 -8 -13 -8 -13 -1 0 19 -36 23 -71 8 -25 -11
-28 -15 -13 -16 11 0 24 4 30 9 5 6 18 2 33 -10 21 -17 22 -22 10 -30 -20 -13
-29 -11 -29 6 0 19 -14 19 -31 -1 -10 -13 -10 -17 2 -25 8 -5 21 -8 29 -8 23
2 80 -13 86 -22 3 -5 0 -9 -5 -9 -6 0 -11 -4 -11 -10 0 -5 7 -10 16 -10 9 0
12 -5 8 -12 -4 -7 4 -3 17 9 12 12 20 26 15 30 -4 4 -11 1 -16 -7 -8 -13 -10
-12 -10 3 0 9 4 17 10 17 5 0 7 7 4 15 -5 11 -2 13 10 9 11 -4 16 -1 16 10 0
19 -2 19 -35 4 -18 -8 -22 -14 -13 -19 7 -4 9 -11 5 -15 -4 -4 -13 -2 -19 4
-7 7 -23 13 -37 13 -17 1 -20 3 -8 6 9 2 17 13 17 24 0 14 7 19 26 19 16 0 23
-4 18 -12 -5 -7 -3 -8 6 -3 18 11 89 14 96 4 3 -5 0 -9 -5 -9 -6 0 -11 -6 -11
-14 0 -7 -10 -17 -22 -21 l-23 -7 25 -7 c21 -6 22 -8 8 -14 -10 -3 -18 -13
-18 -22 0 -19 19 -20 26 -1 3 8 16 13 30 11 13 -1 27 2 30 6 3 5 -4 9 -14 9
-30 0 -33 25 -6 49 28 25 46 19 43 -12 -4 -55 -2 -57 46 -52 25 2 45 0 45 -5
0 -10 -29 -22 -40 -15 -4 3 -13 -2 -20 -10 -7 -8 -9 -15 -5 -15 4 0 2 -7 -5
-15 -10 -13 -15 -13 -21 -3 -4 7 -11 9 -14 6 -4 -4 -1 -16 7 -27 14 -20 14
-20 27 0 7 12 18 18 27 15 20 -8 50 20 31 28 -13 7 15 1 52 -10 22 -6 23 -5
18 17 -3 13 -2 31 3 39 8 12 10 12 10 1 0 -7 6 -11 15 -7 11 4 15 -2 15 -20 0
-14 -4 -23 -9 -20 -5 3 -11 -1 -15 -9 -6 -17 9 -21 19 -5 13 21 26 9 20 -18
-6 -28 -5 -29 37 -30 28 -1 48 -8 58 -20 17 -21 101 -45 124 -36 26 10 9 22
-25 18 -18 -2 -38 1 -46 7 -7 7 -16 9 -20 6 -10 -11 -32 13 -26 29 3 8 -1 14
-11 14 -9 0 -16 5 -16 11 0 6 7 8 15 5 8 -3 22 -9 30 -12 8 -3 15 -1 15 5 0 6
-4 11 -10 11 -15 0 -12 17 5 24 8 3 29 3 45 -1 26 -5 30 -10 30 -36 0 -24 -3
-28 -12 -19 -16 16 -38 15 -38 -2 0 -19 37 -31 54 -17 7 6 16 8 19 4 4 -3 7
-1 7 5 0 7 5 12 11 12 6 0 9 -9 6 -20 -3 -12 0 -20 7 -20 8 0 11 12 8 34 -5
43 15 57 38 26 12 -15 22 -20 31 -15 12 7 12 6 1 -7 -8 -9 -19 -15 -27 -12 -7
3 -16 1 -20 -5 -4 -7 0 -8 11 -4 11 4 15 2 11 -4 -4 -6 4 -18 18 -27 28 -18
45 -21 45 -5 0 5 -3 8 -7 6 -5 -3 -14 1 -20 9 -8 8 -9 15 -3 19 6 3 10 17 10
31 0 13 5 24 11 24 6 0 8 -9 4 -21 -7 -22 0 -23 45 -5 23 9 48 -10 33 -25 -9
-9 -15 -9 -27 0 -12 10 -13 6 -9 -31 6 -46 13 -60 20 -40 5 14 33 16 33 2 0
-5 5 -10 11 -10 6 0 9 6 6 13 -3 8 7 21 24 31 16 10 29 26 29 37 0 10 4 19 9
19 5 0 9 -13 9 -30 -1 -16 -5 -30 -10 -30 -14 0 -38 -27 -31 -34 4 -3 22 -3
40 0 28 5 33 3 33 -14 0 -21 36 -37 46 -21 3 5 -4 9 -15 9 -12 0 -21 4 -21 9
0 5 12 6 28 2 32 -9 44 -41 14 -41 -13 0 -18 -7 -18 -22 1 -27 19 -48 40 -48
9 0 16 -4 16 -10 0 -5 7 -10 15 -10 8 0 15 5 15 10 0 6 -7 10 -15 10 -8 0 -15
8 -15 18 0 13 -2 14 -9 3 -5 -8 -14 -10 -21 -6 -10 6 -10 11 2 19 9 6 17 20
19 31 3 16 13 20 42 20 40 1 48 -9 18 -24 -24 -13 -34 -38 -15 -38 8 0 14 4
14 7 0 11 49 9 56 -2 3 -5 15 -6 26 -2 14 4 18 2 14 -5 -4 -6 -2 -11 4 -11 7
0 9 8 5 21 -5 14 -1 25 11 33 12 10 14 15 5 20 -9 6 -7 12 6 22 17 13 17 14
-4 20 -24 7 -31 28 -13 39 6 3 10 -1 10 -9 0 -9 7 -16 15 -16 8 0 15 -7 15
-15 0 -8 11 -17 25 -21 14 -3 25 -10 25 -15 0 -5 -3 -8 -8 -6 -19 6 -12 -20 9
-31 23 -13 23 -14 2 -9 -17 4 -23 1 -23 -13 0 -11 5 -22 10 -25 6 -3 10 1 10
9 0 9 8 16 19 16 10 0 22 7 25 16 9 22 8 24 -11 25 -11 0 -13 2 -5 6 45 18 48
-48 3 -72 -23 -12 -24 -14 -8 -20 9 -4 23 -2 31 4 7 6 16 8 19 4 4 -3 7 1 7
10 0 26 17 20 24 -8 4 -16 13 -25 26 -25 10 0 25 -8 32 -17 14 -20 68 -30 68
-13 0 5 -9 10 -20 10 -11 0 -20 5 -20 10 0 6 -8 10 -17 10 -13 0 -14 3 -6 11
6 6 9 18 6 25 -7 18 0 18 42 -4 27 -15 32 -22 22 -32 -9 -10 -9 -11 3 -8 8 3
14 15 13 27 -3 22 20 30 32 11 3 -5 1 -10 -5 -10 -6 0 -8 -5 -4 -12 5 -8 11
-6 19 6 11 14 14 15 25 1 9 -11 9 -15 1 -15 -7 0 -9 -4 -6 -10 9 -15 25 -12
25 5 0 8 5 15 10 15 19 0 10 21 -15 32 -30 14 -33 28 -4 28 11 0 17 -4 14 -10
-3 -5 1 -10 9 -10 9 0 16 -6 16 -14 0 -18 27 -28 36 -14 4 7 2 14 -4 16 -7 2
-12 10 -12 18 0 12 4 12 21 2 17 -11 19 -20 15 -50 -4 -23 -2 -38 4 -38 14 0
12 -27 -2 -33 -7 -2 -9 -8 -5 -13 4 -5 27 13 50 39 40 45 77 62 77 34 0 -7 -9
-20 -20 -30 -29 -25 -25 -37 13 -32 44 6 70 -3 63 -22 -4 -11 -2 -13 9 -9 8 3
15 1 15 -4 0 -6 7 -10 15 -10 8 0 15 -6 15 -14 0 -7 7 -19 16 -27 13 -10 17
-10 25 2 6 10 9 10 9 2 0 -7 4 -13 9 -13 4 0 6 11 3 25 -5 27 -17 33 -26 13
-3 -10 -9 -8 -19 5 -8 9 -17 17 -21 17 -11 0 -56 52 -56 65 0 7 12 15 28 18
35 7 42 0 8 -9 -31 -7 -35 -24 -6 -24 11 0 20 5 20 10 0 6 7 10 15 10 8 0 15
-4 15 -10 0 -5 -7 -10 -15 -10 -23 0 -18 -16 10 -34 34 -22 42 -20 19 5 -19
22 -19 22 9 15 22 -5 27 -3 28 11 0 10 5 5 9 -11 5 -16 7 -33 3 -39 -8 -13 18
-57 34 -57 7 0 13 5 13 10 0 6 -7 10 -15 10 -8 0 -15 5 -15 11 0 7 11 9 28 5
15 -3 21 -3 15 0 -15 7 -9 13 49 56 29 22 37 25 42 13 3 -8 14 -15 25 -15 30
0 51 -11 51 -27 0 -8 -6 -13 -12 -10 -7 2 -12 10 -11 16 3 12 -10 15 -20 5 -3
-4 1 -14 10 -23 16 -15 15 -16 -13 -19 -16 -2 -32 -9 -36 -15 -4 -6 -10 -8
-14 -4 -4 4 1 13 11 21 23 17 27 42 9 57 -11 9 -19 8 -34 -6 -22 -20 -17 -40
7 -30 13 4 14 3 4 -9 -7 -8 -11 -25 -9 -38 3 -21 -1 -23 -32 -21 -32 3 -33 2
-12 -9 12 -6 22 -17 22 -25 0 -7 5 -13 11 -13 6 0 9 5 7 12 -5 13 38 58 56 59
33 2 62 11 76 24 22 20 36 19 20 0 -7 -8 -9 -15 -5 -15 4 0 2 -6 -4 -14 -8
-10 -9 -16 -1 -21 5 -3 13 1 16 10 6 14 8 13 21 -5 12 -18 12 -22 -1 -36 -15
-14 -16 -14 -16 0 0 9 -4 16 -10 16 -5 0 -10 -9 -10 -20 0 -13 7 -20 19 -20
11 0 27 -3 37 -7 12 -4 15 -3 10 5 -9 15 12 54 25 46 5 -3 16 0 25 6 12 10 18
8 34 -10 11 -13 23 -21 26 -17 8 7 -14 47 -26 47 -6 0 -10 5 -10 10 0 6 11 8
25 4 31 -8 33 8 3 36 l-23 21 28 -6 c22 -6 27 -4 28 11 0 12 3 14 6 6 3 -7 0
-18 -6 -26 -7 -8 -8 -23 -1 -47 12 -41 12 -39 0 -39 -5 0 -10 7 -10 15 0 8 -5
15 -11 15 -7 0 -5 -10 5 -25 20 -30 21 -46 2 -39 -8 3 -19 -3 -26 -15 -10 -20
-9 -20 15 -9 20 9 28 9 38 -2 10 -10 9 -12 -5 -7 -10 4 -18 2 -18 -3 0 -6 6
-10 14 -10 8 0 17 -6 20 -12 4 -7 4 5 1 27 -3 27 -1 35 5 25 10 -16 11 -15 28
23 11 26 11 28 -8 22 -16 -5 -20 -2 -20 14 0 12 7 21 15 21 8 0 15 -5 15 -11
0 -5 5 -7 11 -3 8 4 9 -4 4 -27 -4 -24 -3 -30 4 -19 8 12 13 11 33 -7 13 -12
28 -22 33 -23 21 -3 16 -8 -14 -15 -17 -4 -28 -11 -25 -17 4 -6 10 -6 17 1 6
6 21 11 34 11 16 0 21 4 17 15 -4 9 -1 15 7 15 19 0 40 -15 38 -26 -4 -25 3
-27 21 -4 11 14 20 19 20 13 0 -19 20 -16 20 3 0 13 -7 15 -30 11 -25 -6 -30
-3 -30 13 0 17 3 18 27 9 19 -7 29 -7 31 0 2 6 8 11 14 11 5 0 6 -9 3 -21 -4
-12 -3 -19 2 -16 5 3 14 2 21 -2 13 -8 5 -51 -10 -51 -5 0 -6 9 -3 20 4 11 2
20 -4 20 -6 0 -11 -4 -11 -10 0 -5 -7 -10 -15 -10 -8 0 -15 -4 -15 -10 0 -5 8
-10 18 -10 23 0 74 -35 65 -44 -4 -4 1 -4 11 0 14 5 15 9 4 16 -10 7 -10 11 0
15 17 7 15 24 -3 17 -9 -4 -15 0 -15 10 0 10 9 16 23 16 18 0 19 2 7 11 -12 8
-11 9 5 6 11 -2 19 -8 18 -15 -2 -6 4 -9 11 -6 9 3 16 -2 18 -12 3 -16 6 -16
25 6 13 13 26 20 30 15 5 -4 2 -10 -4 -12 -7 -3 -13 -11 -13 -18 0 -8 -8 -19
-17 -24 -19 -11 -19 -11 15 -15 18 -2 21 1 16 17 -4 13 1 24 16 34 15 11 18
18 10 28 -8 9 -6 14 5 19 9 3 15 0 15 -9 0 -7 9 -16 19 -20 13 -4 17 -12 14
-25 -6 -22 12 -28 20 -7 2 7 12 -2 23 -20 11 -18 25 -33 32 -33 6 0 12 -4 12
-10 0 -13 -13 -13 -27 1 -13 13 -28 -5 -18 -21 6 -9 56 -9 63 1 7 10 -12 46
-36 66 -15 12 -24 25 -20 28 3 3 13 -1 22 -10 9 -9 26 -15 39 -14 12 2 28 0
35 -4 7 -5 12 -3 12 4 0 7 2 10 5 7 9 -9 -7 -38 -21 -38 -8 0 -14 -5 -14 -11
0 -5 5 -7 12 -3 6 4 17 -1 24 -10 12 -17 13 -16 24 3 8 15 8 21 0 21 -6 0 -8
5 -4 11 4 7 9 7 13 2 3 -5 14 -13 25 -16 10 -4 16 -13 13 -22 -4 -9 -1 -12 7
-9 22 8 4 58 -22 62 -26 4 -27 8 -8 28 17 16 46 19 46 4 0 -5 -7 -10 -17 -10
-14 0 -14 -2 2 -20 10 -11 24 -20 30 -20 7 0 15 -7 19 -15 3 -8 0 -15 -7 -15
-7 0 -13 -9 -14 -19 -1 -17 5 -20 38 -19 21 0 36 4 33 9 -10 17 22 20 52 4 16
-8 23 -15 17 -15 -7 0 -13 -4 -13 -10 0 -5 10 -10 23 -10 28 0 30 30 4 60 -16
19 -16 20 1 20 10 0 23 -5 30 -12 9 -9 12 -9 12 0 0 7 12 12 28 11 15 0 20 -3
12 -6 -25 -9 -50 -35 -44 -45 4 -6 10 -5 15 3 5 9 10 5 14 -14 4 -15 11 -24
16 -21 5 3 9 1 9 -4 0 -5 9 -12 20 -15 11 -3 20 -10 20 -16 0 -14 -37 -15 -45
-1 -8 12 -25 13 -25 1 0 -8 19 -17 57 -26 6 -2 19 6 29 16 9 10 12 19 7 19 -6
0 -26 14 -44 31 -24 22 -28 30 -15 27 11 -1 21 3 23 10 3 6 0 12 -6 12 -6 0
-11 5 -11 12 0 6 7 4 18 -5 10 -10 22 -14 26 -10 5 5 6 -1 4 -12 -2 -11 -10
-19 -16 -18 -15 4 -16 -13 -1 -22 11 -8 40 25 33 37 -3 5 0 8 7 8 7 0 10 -11
7 -30 -3 -23 0 -31 14 -36 11 -3 24 -18 30 -32 6 -15 12 -22 15 -15 3 7 -2 26
-11 43 -8 17 -10 28 -5 24 6 -3 18 1 27 8 9 8 24 19 32 23 13 8 13 6 2 -7 -10
-13 -10 -17 0 -21 8 -4 9 -6 1 -6 -22 -2 -1 -41 26 -47 52 -11 57 -14 41 -24
-9 -6 -17 -5 -21 2 -4 7 -9 7 -13 -1 -4 -6 -18 -8 -32 -5 -15 4 -24 2 -24 -6
0 -7 13 -10 34 -9 19 2 38 0 42 -4 4 -4 13 1 20 11 10 14 15 15 25 5 17 -17
26 -16 26 2 0 8 -7 15 -16 15 -9 0 -23 6 -32 13 -13 10 -14 14 -3 25 8 7 15 8
19 2 3 -6 1 -10 -6 -10 -31 0 7 -15 42 -17 41 -1 49 7 24 27 -8 7 -15 16 -15
21 0 5 7 9 15 9 8 0 15 -7 15 -16 0 -8 4 -13 9 -10 5 4 11 0 14 -6 4 -10 7
-11 18 0 16 15 39 16 39 1 0 -5 -4 -8 -9 -4 -13 8 -22 -10 -15 -29 8 -20 28
-21 43 -2 8 9 8 21 1 40 -9 24 -13 26 -52 20 -34 -5 -41 -4 -32 6 7 6 28 12
48 13 29 1 36 5 36 21 0 18 -2 19 -11 6 -9 -12 -10 -12 -5 3 3 10 6 25 6 33 0
9 5 12 10 9 6 -4 7 -11 4 -17 -5 -7 0 -9 14 -6 13 4 23 0 26 -9 3 -8 11 -11
17 -7 8 5 9 3 4 -5 -5 -9 -10 -10 -18 -2 -17 17 -27 13 -27 -9 0 -11 -5 -20
-12 -20 -13 0 -2 -14 13 -16 5 -1 15 -2 22 -3 7 -1 5 -6 -5 -12 -19 -10 -25
-49 -8 -49 5 0 14 8 20 18 9 15 10 14 9 -8 -2 -41 0 -50 15 -50 8 0 13 -11 12
-30 -1 -16 -4 -30 -8 -30 -5 0 -8 -5 -8 -10 0 -6 11 -8 28 -4 27 7 27 7 8 -15
-11 -11 -14 -21 -8 -21 23 0 45 49 39 88 -3 20 -3 32 0 25 2 -7 11 -9 19 -6
17 6 19 -8 2 -25 -17 -17 4 -15 30 4 12 8 22 11 22 6 0 -12 -34 -42 -48 -42
-6 0 -14 -5 -18 -11 -5 -9 1 -10 22 -5 16 4 32 12 35 18 4 6 22 9 40 5 33 -5
33 -5 7 6 -31 12 -37 27 -12 27 9 0 14 6 11 13 -2 6 -16 11 -31 10 -21 -2 -26
2 -22 13 5 12 1 14 -17 9 -17 -5 -18 -4 -7 4 8 5 11 13 7 17 -3 4 -13 1 -22
-6 -11 -9 -18 -10 -29 -1 -10 9 -16 8 -26 -4 -7 -8 -20 -15 -29 -14 -12 0 -11
4 7 16 25 18 29 33 7 33 -8 0 -15 5 -15 10 0 16 22 12 36 -7 7 -10 16 -15 20
-10 4 4 2 13 -4 19 -7 7 -12 18 -12 26 0 10 5 9 18 -5 9 -11 36 -35 60 -52 32
-25 41 -28 36 -14 -4 14 -1 13 12 -4 9 -13 22 -23 28 -23 6 0 4 5 -4 11 -11 8
-9 9 10 4 20 -6 23 -5 13 6 -7 7 -13 17 -13 22 0 5 8 -1 18 -13 16 -20 19 -21
31 -6 7 9 20 16 28 16 13 0 13 -3 2 -16 -10 -13 -10 -17 0 -24 8 -4 11 -16 7
-28 -4 -11 -2 -23 4 -27 5 -3 10 1 10 9 0 8 5 18 12 22 8 5 9 0 6 -14 -4 -12
-2 -22 3 -22 5 0 9 4 9 8 0 4 9 8 20 8 36 0 21 -16 -21 -22 -29 -5 -39 -11
-35 -21 4 -8 6 -21 6 -29 0 -8 7 -14 15 -14 13 0 19 -12 16 -32 0 -4 5 -5 13
-2 21 8 12 39 -12 42 -14 2 -22 11 -22 22 0 17 4 18 25 10 18 -7 23 -6 19 4
-3 8 4 16 16 19 21 5 40 -16 26 -30 -3 -4 -6 -1 -6 6 0 7 -5 9 -11 6 -6 -5 -4
-11 7 -19 13 -10 14 -17 6 -32 -11 -21 -5 -37 16 -42 6 -1 12 5 12 14 0 11 5
14 18 9 13 -5 14 -4 5 6 -10 10 -16 9 -28 -1 -8 -7 -18 -10 -22 -6 -3 3 -1 6
5 6 7 0 12 14 12 30 0 23 4 30 20 30 11 0 20 -4 20 -10 0 -5 -7 -10 -15 -10
-8 0 -15 -5 -15 -11 0 -6 6 -9 14 -6 8 3 16 1 19 -6 2 -8 9 -6 21 6 10 9 22
17 28 17 6 0 6 6 -2 15 -7 9 -9 19 -5 23 4 4 10 2 12 -5 2 -7 11 -9 19 -6 17
6 19 -8 2 -25 -9 -9 -8 -17 2 -37 7 -14 17 -25 22 -25 4 0 3 9 -4 20 -9 14
-10 23 -3 28 6 4 10 13 11 20 3 31 6 36 14 17 7 -17 9 -17 9 -2 1 20 17 23 24
5 4 -9 6 -7 6 3 1 9 8 16 15 16 12 0 13 -5 4 -20 -7 -14 -7 -17 1 -13 6 4 11
2 11 -5 0 -9 3 -10 11 -2 19 19 49 3 49 -27 0 -16 3 -37 6 -47 6 -15 4 -16 -7
-5 -18 17 -29 15 -29 -6 0 -13 8 -18 26 -18 24 0 26 3 21 33 -5 28 -3 33 13
33 10 0 22 -5 26 -11 3 -6 14 -9 24 -6 13 3 17 0 13 -9 -3 -8 0 -14 6 -14 6 0
11 7 11 16 0 8 5 12 10 9 15 -10 12 -35 -5 -35 -8 0 -15 -5 -15 -11 0 -26 35
-1 41 29 9 44 14 47 42 29 17 -11 28 -12 41 -5 14 8 17 7 12 -1 -4 -6 -2 -11
4 -11 16 0 42 28 36 38 -2 4 -1 14 5 22 7 12 9 10 9 -7 0 -13 6 -23 13 -23 8
0 14 -6 14 -13 0 -9 -9 -12 -26 -9 -23 3 -22 1 9 -16 23 -13 36 -27 37 -43 1
-23 1 -23 -4 -1 -6 30 -18 28 -19 -3 -1 -14 2 -25 7 -25 5 0 9 -5 9 -11 0 -5
-5 -7 -10 -4 -6 3 -13 -1 -16 -9 -3 -9 -12 -16 -20 -16 -8 0 -14 -6 -14 -14 0
-8 11 -13 29 -12 21 1 27 4 20 13 -14 16 -1 20 48 18 25 0 42 3 42 9 -3 25 2
49 8 43 3 -4 14 0 23 8 15 13 17 13 17 0 0 -8 -4 -15 -9 -15 -4 0 -8 -4 -8 -9
0 -5 15 -5 33 -2 17 4 32 13 32 21 0 7 5 15 10 17 15 5 13 -43 -2 -59 -20 -19
-16 -48 7 -48 11 0 20 -4 20 -9 0 -5 9 -7 20 -4 14 4 20 0 20 -11 0 -9 5 -16
10 -16 6 0 10 5 10 10 0 6 12 10 27 10 26 0 26 1 7 15 -19 14 -19 14 1 15 19
1 19 1 2 11 -21 12 -51 4 -42 -11 3 -5 -3 -10 -14 -10 -12 0 -21 5 -21 11 0 6
-9 8 -20 4 -15 -5 -18 -3 -14 9 4 11 12 13 29 6 17 -6 27 -5 35 5 10 12 26 13
73 6 4 0 5 -12 3 -26 -5 -25 7 -34 19 -15 3 6 22 10 42 10 27 0 36 -5 40 -21
3 -11 11 -18 18 -15 8 3 16 -5 19 -20 4 -13 11 -24 16 -24 6 0 10 -5 10 -11 0
-6 -9 -8 -20 -4 -12 4 -28 1 -36 -6 -8 -6 -18 -9 -22 -5 -4 4 1 13 11 20 23
18 22 24 -5 22 -13 -1 -22 -7 -20 -14 1 -7 -5 -12 -13 -12 -12 0 -13 -4 -4
-18 12 -19 51 -19 75 -1 7 6 16 3 24 -6 7 -8 20 -15 29 -15 13 1 12 3 -4 12
-19 12 -19 12 5 19 l25 7 -22 7 c-13 4 -23 14 -23 22 0 9 6 13 15 9 9 -3 15 0
15 8 0 8 -6 16 -14 19 -8 3 -16 16 -18 29 -3 21 -8 23 -48 21 l-45 -3 35 13
c39 14 70 11 67 -7 -1 -6 7 -11 18 -11 17 0 21 -9 26 -55 5 -51 6 -48 7 28 2
64 -1 81 -10 76 -10 -6 -10 -5 -1 7 9 11 12 241 13 967 l0 952 -3698 0 -3699
0 -11 -25 c-6 -14 -16 -25 -22 -25 -6 0 -3 11 6 25 15 23 15 25 0 25 -9 0 -16
-4 -16 -10 0 -5 -5 -10 -11 -10 -5 0 -7 5 -4 10 4 6 -18 10 -59 10 -53 0 -66
-3 -66 -16 0 -8 -5 -12 -10 -9 -6 4 -8 10 -5 15 3 5 -33 8 -80 7 -81 -1 -85
-2 -79 -21 5 -20 5 -19 -11 2 -18 24 -75 32 -75 10 0 -8 -3 -9 -8 -3 -9 13
-52 19 -52 7 0 -13 -62 -13 -77 0 -10 8 -13 7 -13 -3 0 -11 -2 -11 -10 1 -8
12 -10 10 -10 -8 0 -15 -5 -22 -12 -19 -7 2 -12 11 -10 21 2 12 -5 16 -28 16
-20 0 -30 -5 -30 -15 0 -8 -7 -15 -15 -15 -8 0 -15 7 -15 15 0 8 -4 15 -10 15
-5 0 -10 -3 -10 -7z"/>
<path d="M8815 5144 l-30 -14 33 6 c39 7 42 -8 6 -33 -14 -10 -38 -29 -54 -43
-64 -56 -82 -70 -95 -70 -8 0 -20 -7 -29 -15 -8 -9 -19 -17 -23 -18 -4 -1 -7
-8 -5 -15 2 -8 -5 -11 -21 -8 -20 3 -34 -5 -64 -40 -23 -25 -35 -46 -29 -49 6
-2 1 -2 -11 0 -24 6 -53 -26 -53 -58 0 -17 1 -17 16 -3 24 24 26 19 9 -20 -8
-20 -15 -38 -15 -40 0 -2 -6 -4 -14 -4 -8 0 -17 -7 -20 -16 -3 -8 -10 -13 -14
-10 -13 8 -69 -30 -89 -61 -28 -44 -46 -63 -60 -63 -6 0 -15 -5 -19 -12 -4 -7
-3 -8 4 -4 20 12 13 -1 -19 -35 -26 -27 -29 -35 -15 -37 9 -2 16 -9 16 -15 0
-8 4 -7 12 1 7 7 22 12 35 12 13 0 26 7 29 15 4 8 10 12 15 9 5 -3 4 -14 -2
-25 -8 -15 -7 -24 2 -35 9 -12 9 -13 -2 -9 -8 3 -36 -15 -64 -40 -27 -25 -56
-43 -63 -40 -7 2 -11 1 -8 -4 3 -5 -1 -12 -10 -15 -8 -3 -12 -10 -9 -16 3 -5
1 -10 -5 -10 -6 0 -10 -8 -9 -17 3 -35 -1 -41 -30 -48 -16 -3 -40 -16 -53 -28
-14 -13 -33 -23 -44 -23 -10 -1 -28 -5 -39 -9 -16 -7 -18 -6 -9 6 20 26 26 52
10 46 -9 -4 -13 3 -13 21 0 15 2 21 4 14 4 -10 8 -10 21 0 13 11 15 10 9 -4
-3 -10 -1 -20 5 -24 6 -4 8 -3 5 2 -3 6 -2 16 3 24 7 11 11 11 23 1 10 -7 18
-8 21 -2 4 5 2 12 -4 16 -6 4 -7 12 -3 18 4 7 -5 4 -20 -6 -15 -10 -27 -13
-27 -7 0 6 -4 9 -9 6 -5 -4 -7 3 -4 14 3 11 10 20 15 20 6 0 7 -7 4 -16 -6
-14 -4 -15 9 -4 11 9 12 15 5 20 -6 4 3 7 19 7 36 0 67 24 76 60 9 39 0 38
-24 -3 -12 -20 -25 -34 -28 -30 -3 3 -12 1 -19 -4 -6 -6 -16 -10 -20 -9 -9 2
-55 -15 -78 -28 -6 -4 -2 4 9 17 l20 23 -23 -12 c-13 -7 -35 -10 -50 -6 -22 4
-35 -1 -61 -24 -19 -17 -50 -36 -70 -42 -20 -6 -52 -23 -71 -38 -38 -29 -124
-81 -135 -81 -4 0 14 16 39 35 26 19 50 35 54 35 4 0 21 12 37 26 22 19 25 24
10 20 -15 -5 -13 0 10 21 21 19 24 25 10 19 -23 -8 -25 -9 -43 -7 -7 0 -10 6
-7 12 4 6 13 8 21 5 8 -3 14 -1 14 5 0 7 10 9 24 5 16 -4 26 -1 29 8 3 8 37
31 76 52 39 21 71 44 71 52 0 7 4 11 8 8 10 -6 64 39 56 47 -9 9 16 30 58 50
20 10 40 23 44 29 4 7 3 8 -4 4 -7 -4 -12 -5 -12 -3 0 2 27 23 60 47 32 24 57
47 54 51 -5 9 11 13 30 10 5 -1 3 5 -4 14 -7 9 -9 15 -4 13 5 -1 19 4 31 12
17 11 19 17 11 28 -8 9 -8 16 2 25 10 10 11 9 5 -3 -8 -14 42 27 76 63 9 9 21
17 26 17 17 0 63 56 63 77 0 11 7 26 15 33 8 7 15 18 15 24 -1 6 -11 -2 -24
-18 -13 -16 -30 -26 -37 -24 -19 7 -147 -60 -159 -83 -6 -10 -20 -24 -33 -30
-22 -12 -22 -12 -4 9 18 20 18 20 -25 -1 -24 -11 -46 -25 -49 -30 -3 -5 -10
-9 -15 -9 -5 0 -47 -27 -94 -59 -92 -63 -203 -169 -178 -169 9 0 21 7 28 16
17 19 56 41 46 25 -4 -7 1 -11 13 -11 12 0 21 7 21 15 0 8 8 15 18 15 10 0 23
5 29 11 6 6 16 10 22 8 12 -4 -70 -71 -124 -100 -16 -10 -29 -22 -28 -27 1 -5
-5 -9 -15 -8 -9 0 -21 -9 -27 -21 -5 -13 -14 -23 -20 -23 -5 0 -3 -5 5 -10 11
-7 11 -10 2 -10 -7 0 -11 -4 -8 -9 3 -5 -2 -15 -11 -22 -14 -13 -16 -11 -11
14 4 22 3 25 -9 16 -7 -7 -11 -14 -9 -16 12 -12 -69 -67 -101 -70 -35 -2 -35
-2 -17 18 11 12 42 36 69 55 70 47 106 80 97 89 -4 5 -1 5 6 1 14 -8 17 10 2
19 -5 3 -7 13 -4 23 5 14 3 14 -10 -2 -14 -18 -16 -18 -16 -3 0 32 -31 10
-218 -153 -57 -50 -108 -90 -115 -90 -7 0 -39 -20 -71 -45 -33 -24 -62 -42
-65 -39 -3 3 1 9 9 14 10 7 11 10 2 10 -11 0 -122 -69 -122 -76 0 -2 21 6 46
16 58 25 61 25 38 -1 -19 -22 -19 -22 6 -16 65 15 131 45 202 93 43 29 78 49
78 44 0 -16 -228 -160 -359 -227 -57 -29 -111 -59 -120 -65 -9 -7 -7 -2 4 11
l20 24 -22 -12 c-12 -6 -29 -21 -37 -32 -9 -14 -22 -20 -33 -17 -10 3 -24 -1
-31 -9 -7 -7 -20 -13 -28 -13 -10 0 -6 8 13 26 15 14 22 23 15 19 -8 -4 -39
-13 -70 -20 -50 -12 -54 -12 -38 1 11 8 23 14 26 14 3 0 6 9 7 20 1 11 -4 20
-10 20 -7 0 -6 4 3 11 35 25 -42 -7 -165 -67 -107 -53 -240 -105 -223 -89 9
10 186 118 220 136 21 10 43 19 49 19 7 0 42 16 78 37 54 30 62 38 46 44 -20
7 -20 7 -1 15 12 5 21 3 24 -4 4 -14 76 16 112 46 14 12 36 31 50 43 21 17
-21 -10 -89 -57 -9 -7 -27 -15 -41 -19 -24 -7 -24 -6 5 20 17 15 30 30 30 35
0 4 11 17 25 29 14 11 22 20 19 21 -3 0 -89 -40 -190 -89 -101 -48 -249 -114
-329 -146 -80 -31 -161 -65 -180 -75 -20 -10 -114 -45 -210 -78 -96 -33 -213
-74 -260 -92 -236 -88 -559 -180 -631 -180 -30 0 -81 -9 -113 -21 -33 -11 -93
-24 -135 -29 -89 -10 -179 -29 -203 -41 -9 -5 -50 -16 -90 -23 -40 -8 -154
-39 -253 -69 -99 -30 -232 -64 -295 -76 -63 -12 -151 -30 -195 -41 -139 -33
-238 -52 -310 -60 -38 -5 -104 -16 -145 -25 -181 -39 -385 -75 -535 -95 -133
-18 -349 -52 -365 -58 -22 -8 -30 -9 -85 -12 -47 -2 -48 -2 -17 -10 48 -11 49
-18 6 -25 -22 -4 -48 -10 -59 -15 -30 -12 -85 -12 -85 0 0 7 -15 9 -42 5 -24
-3 -50 -7 -58 -7 -8 -1 -26 -9 -39 -19 -19 -15 -34 -17 -82 -12 -35 3 -59 2
-59 -4 0 -5 -17 -10 -38 -10 -73 -1 -88 -3 -74 -11 10 -7 -89 -28 -173 -38
-59 -6 -105 -18 -109 -29 -3 -8 -46 -17 -125 -25 -67 -7 -121 -17 -121 -21 0
-5 14 -9 31 -9 16 0 28 -4 25 -8 -3 -5 23 -8 57 -7 119 3 127 4 127 23 0 13 2
14 9 3 5 -8 14 -10 21 -6 7 4 16 2 20 -4 4 -7 38 -15 76 -17 140 -10 154 -12
169 -24 10 -8 48 -11 125 -8 60 2 110 1 110 -2 0 -3 111 -5 246 -5 171 0 248
-3 251 -11 3 -7 18 -9 44 -4 21 4 61 3 87 -2 26 -5 76 -8 112 -8 36 1 67 1 70
0 6 -2 118 -11 140 -11 8 0 42 2 75 5 33 2 65 0 71 -5 7 -6 14 -6 17 -2 3 5
52 7 109 5 56 -2 113 -3 126 -3 12 1 53 -3 89 -9 46 -6 71 -6 80 2 10 8 15 4
22 -13 7 -18 10 -19 10 -6 1 13 11 17 46 19 93 4 100 3 98 -9 -2 -7 2 -13 7
-13 6 0 10 7 10 15 0 18 12 19 28 3 9 -9 15 -10 20 -2 5 8 47 11 132 8 89 -2
127 0 132 9 5 9 10 9 20 -1 15 -15 72 -17 62 -1 -4 7 -1 10 7 7 8 -3 13 -11
12 -17 -4 -14 14 -14 22 0 4 6 14 8 23 4 8 -3 18 -1 22 5 4 6 15 2 28 -11 15
-14 29 -18 43 -14 14 5 19 3 15 -4 -5 -7 3 -9 25 -4 25 5 30 3 24 -7 -5 -8 1
-7 16 3 25 18 64 23 55 8 -3 -5 8 -11 26 -15 36 -7 50 -1 19 9 -12 3 -21 11
-21 16 0 13 12 11 34 -6 11 -8 28 -15 37 -15 10 0 19 -6 21 -12 3 -9 10 -8 22
5 21 21 20 21 41 -18 17 -30 17 -30 11 -3 -4 16 -1 30 6 34 7 5 8 3 3 -6 -6
-10 -1 -11 21 -6 28 7 28 7 9 -8 -20 -15 -20 -15 2 -16 12 0 23 4 25 10 2 6
14 6 33 1 29 -9 29 -10 8 -16 -13 -4 -23 -12 -23 -17 0 -5 -4 -7 -8 -4 -4 2
-30 0 -57 -6 -43 -10 -47 -12 -25 -18 14 -3 44 0 68 6 23 7 49 11 57 8 8 -4
15 -1 15 5 0 6 5 11 10 11 6 0 10 -8 10 -18 0 -11 8 -18 21 -19 20 -2 21 -1 3
12 -11 7 -15 17 -11 21 4 5 12 2 16 -5 5 -7 17 -11 27 -8 11 4 40 8 66 11 70
8 101 17 116 35 8 9 10 10 6 2 -5 -10 0 -12 24 -6 18 3 33 2 37 -5 3 -5 11 -8
16 -4 6 3 5 -3 -3 -15 -10 -17 -19 -20 -45 -15 -27 5 -33 3 -33 -11 0 -16 -2
-16 -24 -2 -21 14 -26 14 -36 2 -6 -7 -18 -11 -26 -8 -8 3 -21 0 -29 -7 -12
-10 -18 -10 -30 0 -9 8 -15 8 -15 2 0 -6 -12 -15 -27 -20 -25 -9 -26 -10 -5
-11 12 -1 22 -5 22 -10 0 -5 -15 -5 -34 -1 -26 6 -36 4 -40 -7 -3 -8 -11 -11
-17 -7 -6 3 -15 0 -20 -7 -6 -10 -9 -11 -9 -1 0 6 -4 12 -10 12 -5 0 -10 -6
-10 -14 0 -20 -27 -40 -32 -24 -4 10 -10 10 -31 1 -31 -14 -36 -7 -10 13 10 7
14 16 9 21 -5 4 -11 2 -13 -4 -3 -8 -22 -13 -47 -13 -23 0 -51 -7 -62 -15 -11
-8 -14 -15 -6 -15 27 0 10 -18 -23 -22 -19 -2 -35 0 -35 5 0 5 -6 5 -12 -1 -7
-5 -39 -13 -70 -17 -32 -4 -58 -11 -58 -15 0 -4 -21 -8 -47 -9 -27 -1 -81 -7
-121 -14 -61 -10 -69 -14 -55 -24 17 -11 16 -12 -4 -12 -13 -1 -23 -5 -23 -11
0 -5 -8 -10 -17 -10 -15 0 -16 -2 -3 -10 13 -8 12 -11 -5 -24 -11 -9 -33 -16
-50 -17 -16 -2 -37 -3 -45 -4 -8 0 -33 -13 -55 -28 -40 -27 -40 -27 -56 -7
-14 16 -18 17 -23 5 -3 -8 -11 -14 -18 -13 -7 2 -12 -3 -10 -10 2 -10 -2 -10
-17 -2 -35 18 -51 12 -51 -20 0 -16 -4 -30 -9 -30 -4 0 -6 11 -3 25 4 25 -11
35 -23 15 -3 -5 -19 -10 -35 -10 -16 0 -31 -4 -35 -9 -3 -5 -19 -8 -36 -6 -17
3 -41 -3 -55 -11 -25 -17 -27 -16 -37 31 -4 15 -5 13 -6 -7 -2 -40 -21 -45
-21 -6 0 18 -4 28 -8 22 -4 -6 -16 -14 -26 -17 -10 -4 -16 -10 -13 -14 4 -3 2
-15 -4 -25 -8 -15 -14 -17 -22 -9 -18 18 -35 13 -40 -11 -4 -22 -4 -22 -6 -2
-1 24 -43 38 -60 21 -7 -7 -18 -6 -36 3 -14 7 -28 11 -31 8 -3 -4 4 -9 15 -13
12 -3 21 -13 21 -22 0 -13 3 -13 15 -3 12 10 15 10 15 -2 0 -11 -15 -17 -45
-22 -25 -3 -65 -9 -90 -12 -25 -4 -45 -12 -45 -18 0 -6 -5 -4 -10 4 -8 12 -11
13 -19 1 -6 -9 -11 -10 -15 -2 -4 6 -12 9 -17 6 -5 -4 -9 -1 -9 5 0 7 8 9 20
5 14 -5 20 -2 20 9 0 9 -6 16 -14 16 -8 0 -17 8 -19 18 -4 13 -5 14 -6 1 -2
-24 -47 -45 -64 -30 -12 9 -16 7 -20 -9 -3 -11 -1 -20 4 -20 5 0 9 -7 9 -15 0
-17 -16 -20 -25 -5 -9 14 -42 12 -48 -2 -4 -10 -8 -10 -15 1 -8 11 -12 10 -21
-5 -10 -18 -10 -18 -11 4 0 17 6 22 25 22 21 0 24 2 13 13 -9 10 -22 12 -46 6
-19 -4 -42 -5 -51 -1 -14 5 -14 4 -2 -11 10 -13 17 -14 26 -7 8 6 16 7 19 2 9
-14 -5 -22 -37 -22 -20 0 -30 6 -34 20 -7 25 -23 26 -24 3 0 -11 -3 -13 -6 -5
-7 17 -23 15 -23 -3 0 -8 -4 -15 -10 -15 -5 0 -10 7 -10 15 0 19 -16 19 -24 0
-4 -13 -9 -12 -35 3 -29 16 -31 16 -48 -2 -10 -10 -13 -16 -6 -12 6 3 14 2 18
-4 3 -5 3 -10 -2 -11 -4 0 -19 -3 -33 -5 -13 -2 -31 -2 -40 2 -13 5 -86 8
-129 5 -13 -1 -7 -15 7 -17 4 0 15 -4 25 -8 9 -5 26 -6 37 -3 11 3 23 1 26 -4
3 -5 -3 -9 -13 -9 -10 0 -29 -3 -42 -7 -17 -4 -22 -3 -17 6 6 9 0 11 -21 9
-18 -2 -27 1 -26 10 2 6 -4 12 -12 12 -9 0 -12 -6 -9 -15 4 -8 1 -15 -5 -15
-6 0 -11 7 -11 16 0 10 -6 14 -17 10 -10 -3 -45 -7 -77 -11 -32 -3 -63 -8 -67
-11 -5 -3 -9 4 -9 16 0 13 -5 20 -12 17 -7 -2 -12 -11 -10 -21 3 -15 -9 -21
-32 -17 -5 1 -13 -4 -17 -11 -7 -10 -9 -10 -9 0 0 6 -6 12 -14 12 -10 0 -14 9
-13 27 1 15 -3 28 -10 28 -6 0 -15 3 -19 8 -13 13 -26 7 -20 -9 8 -22 -12 -58
-27 -47 -7 5 -22 8 -34 7 -13 0 -23 3 -23 7 0 5 5 9 10 9 6 0 10 4 10 10 0 11
-63 1 -68 -12 -2 -4 -10 -8 -18 -8 -8 0 -11 -6 -7 -17 4 -9 2 -14 -3 -10 -5 3
-10 -6 -11 -21 -1 -18 1 -22 5 -11 4 9 15 15 25 13 14 -2 15 1 8 10 -9 10 7
12 74 9 74 -4 84 -3 79 11 -8 22 2 20 26 -4 l20 -20 -23 -1 c-75 -3 -122 -10
-131 -19 -5 -5 -20 -10 -32 -10 -12 0 -24 -5 -26 -12 -2 -6 -22 -13 -43 -14
-22 -1 -41 -7 -43 -13 -2 -6 -19 -11 -38 -11 -24 0 -34 -5 -34 -16 0 -10 -6
-13 -19 -9 -24 7 -51 -4 -51 -22 0 -8 4 -11 10 -8 15 9 121 17 147 10 13 -3
28 -16 33 -28 6 -15 9 -17 9 -6 1 12 8 15 26 11 37 -7 30 -29 -7 -23 -5 0 -8
-3 -8 -9 0 -5 4 -10 9 -10 5 0 17 -3 26 -6 11 -5 16 -2 15 7 -5 32 0 43 12 31
7 -7 23 -12 37 -13 l26 -1 -25 -8 -25 -8 28 -2 c15 -1 33 -3 40 -4 6 -1 15 3
19 8 14 20 22 -5 9 -27 -8 -12 -10 -19 -6 -15 5 4 14 3 22 -3 10 -9 13 -8 13
2 0 9 3 10 8 3 12 -18 53 -24 58 -9 10 24 29 23 30 -1 1 -13 -3 -25 -10 -25
-6 -1 -22 -3 -36 -4 -14 -2 -46 -7 -72 -13 -34 -6 -49 -6 -52 2 -2 6 -5 4 -5
-5 -1 -10 -17 -20 -43 -28 -24 -7 -59 -19 -78 -27 -19 -9 -44 -19 -55 -24 -55
-22 -89 -40 -80 -40 6 -1 1 -5 -10 -10 -13 -6 17 -10 90 -10 166 -2 184 -3
179 -11 -2 -4 7 -6 20 -5 14 0 22 6 19 13 -8 21 23 25 63 8 24 -10 41 -12 47
-6 6 6 17 6 26 2 22 -12 142 -20 135 -10 -3 5 1 9 10 9 8 0 16 5 18 11 3 9 10
8 25 -2 18 -11 24 -10 39 2 11 9 15 9 10 2 -13 -22 3 -34 27 -21 23 13 56 12
70 -2 5 -4 21 -2 35 6 14 7 29 10 32 6 3 -4 25 -8 50 -9 25 0 108 -17 184 -37
151 -40 145 -39 436 -20 52 3 111 2 130 -3 40 -11 282 -1 405 16 198 27 274
35 335 37 136 2 337 16 380 26 25 6 74 12 110 13 85 4 180 14 255 25 33 6 110
12 170 15 127 7 255 33 255 52 0 16 2 16 33 4 19 -7 34 -5 63 9 21 11 40 18
42 15 3 -3 0 -5 -7 -5 -7 0 -9 -5 -5 -12 5 -8 11 -6 20 6 10 15 22 16 76 10
34 -3 68 -10 73 -15 17 -13 69 -17 89 -7 13 7 16 7 11 -1 -5 -9 27 -10 120 -7
87 3 138 1 163 -8 61 -21 285 -27 303 -9 13 13 444 6 470 -8 21 -11 164 6 185
22 12 10 69 -4 90 -22 11 -9 18 -8 29 1 12 10 21 10 40 2 17 -8 54 -9 117 -3
77 6 224 6 288 0 8 -1 51 -1 95 0 106 1 119 0 127 -12 3 -6 54 -14 113 -18 59
-4 109 -10 113 -13 3 -3 0 -6 -6 -6 -6 0 -9 -7 -6 -15 5 -12 10 -13 20 -4 11
9 14 9 14 0 0 -7 14 -17 30 -22 32 -12 38 -24 18 -32 -8 -4 -7 -6 4 -6 9 -1
19 7 21 16 4 14 5 14 6 3 1 -13 19 -16 109 -17 59 -1 127 -4 152 -7 25 -4 62
-8 82 -10 20 -2 42 -7 48 -11 7 -4 53 -7 102 -6 54 0 130 -7 187 -18 53 -11
117 -22 144 -26 26 -3 47 -10 47 -14 0 -5 39 -9 88 -9 48 0 101 -1 117 -1 17
0 54 -1 84 -1 31 -1 71 -9 96 -21 38 -18 48 -19 87 -8 51 15 209 13 257 -2 24
-8 35 -8 40 0 4 6 22 9 39 7 22 -2 32 1 32 10 0 8 18 15 48 19 26 4 61 10 77
14 17 4 45 4 63 0 18 -3 35 -3 37 1 4 7 21 7 45 0 3 -1 -6 -6 -20 -12 l-25
-10 30 -9 c18 -5 40 -5 55 1 23 8 122 23 145 21 118 -11 146 -11 185 -1 55 15
228 16 242 2 14 -14 0 -35 -18 -28 -8 3 -14 2 -14 -3 0 -12 -54 -23 -122 -26
-31 -1 -69 -6 -85 -10 -15 -5 -34 -7 -42 -6 -12 2 -11 0 1 -12 20 -20 106 -25
146 -8 25 11 39 11 58 2 14 -6 35 -11 47 -11 13 0 33 -7 46 -16 19 -14 25 -14
32 -3 7 11 9 9 10 -6 1 -11 1 -23 0 -27 0 -4 9 -10 20 -13 21 -7 21 -8 -6 -31
-16 -14 -24 -28 -19 -35 4 -8 3 -9 -4 -5 -7 4 -12 1 -12 -8 0 -19 13 -20 42
-5 16 9 23 8 29 -2 7 -12 11 -11 19 1 7 11 10 12 10 2 0 -8 8 -21 18 -30 9
-10 13 -14 8 -9 -17 12 -38 8 -52 -10 -13 -17 -13 -17 -14 0 0 17 -20 25 -20
8 0 -6 -34 -8 -81 -6 -82 3 -113 -1 -104 -15 5 -8 -98 -40 -128 -40 -20 0 -22
-11 -5 -28 7 -7 10 -12 7 -13 -36 -7 -109 -6 -109 2 0 6 -7 3 -16 -5 -15 -15
-34 -20 -62 -17 -8 1 -19 -2 -26 -8 -7 -6 -30 -13 -52 -15 -21 -3 -59 -12 -83
-21 -47 -16 -108 -18 -185 -6 -46 8 -62 19 -85 59 -5 9 -32 14 -77 15 -65 2
-70 4 -81 29 -9 20 -17 26 -34 23 -12 -2 -24 -6 -26 -9 -3 -2 -19 0 -36 5 -23
7 -35 6 -42 -3 -6 -7 -17 -14 -25 -16 -8 -1 -28 -8 -43 -14 -39 -15 -19 -31
22 -17 26 9 35 9 41 -1 5 -8 23 -11 49 -8 42 4 53 -4 25 -20 -8 -5 -16 -22
-16 -39 -1 -30 -1 -30 -49 -25 -28 3 -55 0 -62 -7 -16 -12 -197 -21 -197 -8 0
4 8 11 17 14 9 4 25 14 35 22 10 9 23 17 28 17 6 1 15 2 20 3 6 0 10 5 10 9 0
11 -113 12 -126 1 -12 -10 -94 -1 -115 12 -19 12 1 43 30 47 11 2 21 8 21 13
0 6 -9 7 -22 3 -13 -4 -30 -7 -38 -8 -8 -1 -24 -9 -34 -18 -15 -13 -33 -17
-73 -15 -30 2 -56 0 -59 -5 -4 -5 -12 -7 -19 -4 -7 2 -31 -2 -54 -10 -23 -8
-60 -15 -82 -16 -46 -2 -80 -25 -57 -39 16 -10 2 -24 -34 -33 -22 -5 -25 -3
-21 14 3 11 11 20 19 20 8 0 11 6 7 16 -3 9 -12 13 -22 8 -9 -4 -26 -7 -38 -7
-17 -1 -23 -7 -23 -25 0 -21 2 -23 15 -12 9 7 18 10 22 6 10 -9 -29 -35 -44
-29 -7 3 -13 -2 -13 -10 0 -10 -9 -14 -25 -13 -14 0 -25 6 -25 13 0 6 -3 14
-7 16 -10 7 -10 -54 0 -71 5 -6 6 -12 3 -12 -3 0 2 -8 12 -18 15 -16 18 -16
29 -2 7 8 13 12 13 8 0 -15 -46 -55 -63 -55 -14 0 -17 6 -12 29 5 23 3 28 -12
28 -16 1 -16 2 -3 13 21 17 25 67 6 67 -8 0 -17 -6 -19 -12 -3 -7 -6 21 -8 62
-5 183 -11 212 -37 196 -12 -7 -7 -91 8 -145 14 -52 13 -88 -2 -73 -19 19 -30
14 -17 -9 8 -15 8 -24 0 -32 -8 -8 -11 -8 -11 0 0 7 -9 11 -20 10 -19 -1 -24
-12 -23 -45 1 -8 -6 -10 -18 -7 -13 4 -19 2 -19 -9 0 -9 11 -18 25 -22 14 -3
25 -10 25 -15 0 -5 -16 -2 -36 6 -20 8 -38 15 -40 15 -2 0 -10 14 -19 30 -14
27 -14 33 1 61 13 26 13 33 3 40 -7 4 -19 3 -26 -2 -9 -8 -22 -6 -44 5 -27 13
-33 13 -45 1 -20 -19 -18 -25 19 -56 48 -40 23 -48 -41 -13 -52 29 -57 34 -54
63 2 33 -21 45 -32 16 -3 -8 -12 -15 -21 -15 -8 0 -15 -5 -15 -11 0 -6 9 -9
20 -6 11 3 20 0 20 -5 0 -16 -57 -1 -79 21 -12 12 -27 17 -40 14 -29 -8 -81
27 -81 54 0 25 -4 26 -35 13 -11 -5 -15 -9 -9 -9 7 -1 14 -8 17 -16 5 -12 1
-12 -21 -4 -37 14 -52 28 -52 50 0 23 -11 29 -38 22 -34 -8 -13 -33 62 -73 36
-19 66 -39 66 -43 0 -5 -4 -6 -9 -3 -5 3 -11 -3 -14 -14 -3 -11 -1 -23 4 -26
19 -11 8 -24 -16 -18 -15 4 -25 2 -25 -5 0 -15 77 -14 86 1 4 6 3 8 -4 4 -21
-13 -21 11 1 29 21 18 21 18 2 26 -14 5 -16 8 -4 8 24 1 111 -58 116 -79 3
-11 13 -20 22 -20 9 -1 32 -10 51 -21 19 -11 26 -17 15 -13 -11 3 -28 9 -38
11 -22 7 -72 -41 -61 -59 4 -7 -1 -6 -12 3 -22 19 -77 15 -95 -7 -13 -16 -49
-19 -49 -4 0 7 -7 7 -21 0 -11 -6 -30 -10 -42 -8 -20 3 -19 5 12 22 18 10 42
16 52 13 32 -9 30 21 -3 32 -39 14 -108 14 -108 1 0 -6 -24 -9 -55 -9 -30 1
-55 5 -55 8 0 11 -102 3 -136 -9 -16 -6 -30 -11 -32 -11 -8 3 -62 -31 -62 -39
0 -5 9 -14 20 -20 17 -9 18 -14 8 -30 -7 -10 -15 -17 -19 -14 -4 2 -13 -4 -19
-13 -8 -13 -13 -14 -16 -5 -3 6 -10 12 -15 12 -6 0 -7 -6 -3 -13 6 -9 4 -9 -7
-2 -15 11 -87 13 -104 3 -5 -3 -32 -9 -60 -12 -27 -4 -64 -12 -80 -18 -24 -8
-47 -7 -98 5 -53 12 -70 13 -80 3 -16 -16 -132 -39 -157 -31 -11 3 -29 1 -42
-6 -16 -9 -23 -9 -26 0 -2 6 -8 9 -12 6 -5 -3 -7 -11 -4 -18 3 -9 23 -11 76
-6 72 6 83 4 140 -35 38 -25 100 -38 110 -23 5 8 8 4 8 -10 0 -18 -6 -23 -25
-23 -14 0 -25 -4 -25 -9 0 -11 36 -21 78 -21 20 0 31 -4 27 -10 -4 -6 7 -8 29
-5 20 2 36 0 36 -6 0 -17 57 20 63 41 4 16 14 20 49 21 107 2 143 -2 158 -19
8 -10 23 -16 33 -14 20 4 23 18 5 25 -7 2 7 4 32 3 29 -1 51 -7 61 -18 9 -10
29 -18 45 -17 l29 0 -25 11 -25 10 26 8 c35 10 98 5 131 -10 29 -14 45 -40 25
-40 -7 0 -3 -7 8 -16 19 -14 19 -15 -10 -42 -31 -27 -62 -41 -50 -22 10 16
-31 12 -45 -5 -13 -15 -5 -55 14 -67 6 -5 2 -8 -11 -8 -13 0 -23 -4 -23 -10 0
-5 6 -10 14 -10 8 0 17 -11 20 -25 9 -34 40 -34 34 0 -5 22 -3 23 16 13 13 -7
16 -13 8 -16 -17 -5 -15 -22 2 -22 22 0 30 -19 16 -35 -26 -32 -90 -4 -90 38
0 18 -53 77 -70 77 -9 0 -15 -38 -11 -64 1 -4 -4 -14 -10 -22 -7 -8 -9 -17 -5
-21 8 -9 47 28 40 38 -9 15 13 10 26 -6 11 -13 10 -14 -4 -9 -13 5 -17 2 -14
-12 2 -11 -2 -18 -9 -17 -7 2 -13 -2 -13 -8 0 -5 -5 -7 -10 -4 -6 3 -14 -4
-19 -17 -9 -22 -10 -22 -10 6 -1 16 -4 26 -8 23 -3 -4 -12 1 -19 11 -13 16
-13 16 -14 0 0 -17 -5 -17 -50 -1 -28 11 -40 11 -34 2 5 -9 -16 -13 -45 -10
-7 2 -11 -4 -9 -11 3 -7 12 -12 21 -10 8 1 19 -3 23 -9 5 -8 3 -9 -6 -4 -7 4
-16 2 -21 -6 -7 -12 -9 -12 -9 0 0 11 -3 11 -17 0 -16 -13 -17 -12 -5 3 9 11
10 18 2 23 -5 3 -10 2 -10 -4 0 -5 -12 -8 -26 -6 -18 2 -28 -4 -35 -19 -7 -15
-8 -4 -3 34 3 30 7 66 9 80 1 14 3 29 4 35 0 5 6 4 12 -2 14 -14 89 16 89 35
0 19 -26 25 -59 14 -22 -8 -31 -7 -34 1 -3 7 -9 1 -15 -13 -6 -14 -11 -19 -11
-12 -1 10 -6 10 -21 2 -17 -9 -19 -8 -13 7 6 16 5 16 -11 3 -16 -13 -18 -12
-14 9 2 18 10 24 34 26 18 1 46 9 63 18 28 14 32 14 40 -1 11 -20 86 -21 122
-2 30 17 11 31 -45 35 -25 1 -52 7 -59 14 -8 6 -41 10 -75 9 l-61 -2 -22 -60
c-12 -34 -26 -65 -31 -71 -6 -6 -7 -4 -3 6 5 13 1 15 -18 12 -19 -4 -23 -10
-20 -25 3 -10 11 -17 18 -14 8 3 11 -2 8 -15 -8 -29 -23 -23 -30 11 -3 17 -10
33 -14 36 -16 9 -10 -26 11 -66 25 -48 25 -58 3 -38 -40 34 -46 28 -10 -8 20
-22 37 -44 37 -49 0 -5 -7 0 -15 12 -11 16 -24 21 -48 19 -19 -2 -38 -6 -44
-9 -14 -9 -9 48 5 66 10 12 9 16 -4 21 -16 6 -15 8 4 22 12 8 27 12 32 9 6 -3
10 -1 10 4 0 10 -22 16 -43 12 -88 -16 -160 -4 -84 14 17 4 35 9 40 10 4 1 12
3 17 4 6 0 10 5 10 11 0 6 -9 6 -26 0 -14 -6 -43 -10 -64 -10 -37 0 -56 -10
-43 -24 3 -3 7 -19 7 -35 1 -20 -2 -27 -10 -20 -14 11 -64 -26 -64 -47 0 -8
-7 -14 -15 -14 -8 0 -15 -4 -15 -10 0 -16 79 -8 99 9 10 9 16 23 13 31 -3 8 4
4 16 -10 14 -17 17 -29 11 -37 -7 -7 -6 -14 1 -18 5 -3 10 -11 10 -16 0 -6 -5
-7 -12 -3 -7 4 -8 3 -4 -4 3 -6 22 -9 40 -7 33 4 35 3 49 -40 9 -26 12 -47 6
-50 -5 -4 -9 1 -9 9 0 9 -4 16 -10 16 -5 0 -10 -4 -10 -8 0 -8 -33 -14 -93
-16 l-38 -1 23 -19 23 -19 -27 7 c-24 5 -28 3 -34 -20 -5 -19 -9 -22 -15 -12
-14 21 -11 60 4 52 7 -5 6 -1 -3 10 -13 17 -15 17 -23 -8 -8 -25 -10 -25 -37
-11 -16 8 -31 24 -35 35 -7 22 -25 28 -25 8 1 -21 47 -67 74 -74 14 -3 26 -10
26 -15 0 -4 -16 -1 -35 7 -42 17 -48 18 -39 2 4 -7 3 -8 -4 -4 -6 4 -9 12 -6
19 3 9 -14 12 -64 11 -68 0 -68 0 -64 25 l4 26 -28 -31 c-16 -16 -23 -23 -16
-14 17 23 15 35 -3 20 -18 -15 -20 -13 -30 19 -5 18 -4 22 5 16 8 -5 11 -4 7
2 -4 6 -22 9 -40 8 -23 -2 -37 2 -45 15 -9 16 -6 20 22 34 19 9 39 16 45 16 6
0 11 6 11 13 0 7 24 21 54 30 30 10 59 24 66 32 7 8 18 15 25 15 7 0 15 9 18
21 3 11 15 23 27 26 11 3 19 10 17 16 -5 15 -52 26 -68 16 -8 -5 -26 -9 -41
-9 -16 0 -37 -9 -48 -20 -25 -25 -98 -43 -167 -41 -32 1 -53 -3 -53 -9 0 -6
-4 -9 -10 -5 -5 3 -19 -4 -30 -15 -15 -15 -31 -21 -55 -19 -19 2 -37 0 -41 -4
-4 -4 -18 -7 -30 -7 -14 0 -30 -10 -40 -25 -17 -27 -37 -25 -27 2 4 11 3 14
-5 9 -29 -18 2 -86 39 -86 30 0 63 -30 42 -37 -7 -3 -13 -16 -13 -29 0 -22 2
-24 23 -13 20 11 21 11 8 -4 -7 -10 -21 -17 -31 -17 -13 0 -16 6 -12 25 2 14
1 25 -3 25 -14 0 -34 -34 -35 -57 0 -28 -4 -29 -32 -1 -14 14 -23 18 -26 10
-2 -7 -8 -10 -13 -6 -16 9 -10 39 11 52 22 14 17 37 -6 28 -8 -3 -14 1 -14 9
0 18 -10 19 -33 1 -15 -12 -15 -15 -2 -26 17 -14 20 -50 5 -50 -15 0 -12 -30
4 -36 8 -3 17 -13 20 -21 5 -13 4 -14 -8 -4 -8 7 -21 9 -27 5 -8 -5 -9 -3 -4
6 5 9 2 10 -14 5 -13 -4 -21 -2 -21 5 0 6 -5 8 -10 5 -6 -4 -17 9 -25 29 -18
43 -19 60 -2 50 8 -6 8 -3 -1 9 -8 9 -10 22 -6 28 4 7 3 9 -3 6 -6 -4 -14 1
-17 10 -5 12 -9 14 -18 5 -7 -7 -22 -12 -35 -12 -18 0 -23 -6 -23 -26 0 -14 4
-23 9 -20 5 4 7 -3 4 -15 -4 -15 -8 -17 -14 -8 -14 23 -20 3 -6 -23 10 -20 17
-23 34 -17 11 4 24 12 28 18 10 18 25 13 34 -11 11 -29 23 -77 15 -60 -7 16
-41 16 -47 0 -4 -10 -6 -10 -6 0 -1 10 -6 10 -21 2 -11 -6 -18 -14 -16 -18 3
-5 -5 -8 -17 -9 -12 0 -17 1 -12 3 15 6 6 85 -11 102 -12 11 -14 11 -14 -1 0
-8 -9 -22 -19 -31 -19 -18 -20 -17 -12 10 11 41 -6 74 -38 74 -18 0 -22 3 -12
9 9 6 10 11 2 15 -6 4 -16 -4 -22 -18 -7 -14 -16 -23 -20 -20 -4 2 -21 -9 -38
-25 -33 -33 -45 -86 -21 -101 10 -7 -6 -10 -52 -10 -75 0 -98 6 -98 26 0 16
-8 18 -70 14 -53 -2 -64 -10 -55 -39 l6 -21 3665 0 3664 0 0 1865 c0 1026 -3
1865 -6 1865 -3 0 -36 -7 -73 -16 -61 -15 -70 -15 -126 1 -33 9 -87 24 -120
32 -33 8 -87 26 -120 39 -68 27 -148 44 -209 44 -23 0 -73 9 -111 20 -38 11
-85 20 -102 20 -46 0 -154 37 -278 96 -107 50 -161 65 -259 74 -109 10 -176
29 -446 130 -91 33 -232 84 -315 111 -82 28 -177 63 -210 79 -76 35 -290 154
-323 180 -13 11 -29 20 -35 20 -13 0 -181 103 -332 203 -65 44 -158 98 -205
120 -47 21 -94 47 -105 57 -11 9 -32 20 -48 24 -42 10 -168 73 -207 105 -55
44 -73 50 -155 56 -43 2 -83 9 -89 14 -21 17 -81 20 -111 5z m-489 -836 c4 -7
3 -8 -4 -4 -7 4 -12 5 -12 2 0 -2 -3 -13 -7 -23 -6 -15 -5 -16 9 -5 34 28 25
-7 -12 -46 -21 -23 -40 -51 -42 -64 -2 -16 -13 -24 -38 -30 -19 -5 -43 -18
-52 -29 -9 -11 -19 -15 -22 -10 -4 5 0 12 6 14 8 3 6 6 -4 6 -25 1 -22 14 5
26 22 10 22 31 0 29 -7 -1 -10 2 -7 7 3 5 10 9 15 9 6 0 17 6 25 14 12 13 12
16 -1 23 -19 11 -8 53 15 53 9 0 25 9 35 20 20 22 79 28 91 8z m-716 -68 c5 0
13 7 18 16 5 9 12 13 14 8 3 -5 -5 -20 -18 -34 -20 -20 -24 -22 -24 -7 0 9 -4
17 -10 17 -5 0 -10 -5 -10 -11 0 -7 -12 -10 -28 -7 -21 3 -28 0 -28 -13 0 -10
3 -16 6 -15 3 2 14 0 24 -3 16 -6 13 -10 -20 -26 -21 -10 -39 -16 -40 -14 0 2
-9 -4 -19 -14 -9 -10 -24 -16 -31 -13 -7 3 -20 -2 -29 -10 -8 -8 -19 -13 -24
-10 -5 4 -11 2 -13 -3 -1 -5 -25 -15 -53 -23 -29 -9 -49 -20 -47 -27 1 -7 -2
-10 -8 -6 -5 3 -19 1 -31 -5 -11 -7 -23 -9 -26 -6 -6 6 99 57 169 82 28 9 45
21 41 27 -4 6 0 8 10 4 19 -7 23 8 6 18 -5 4 -19 -1 -29 -10 -10 -9 -33 -20
-52 -25 -18 -4 -42 -11 -53 -15 -11 -4 -2 5 20 19 22 14 48 29 58 32 9 4 17
11 17 17 0 6 3 8 6 4 4 -3 39 12 79 33 39 22 75 37 78 33 4 -3 7 -1 7 6 0 8 5
7 16 -3 8 -9 19 -16 24 -16z m1326 -3310 c7 0 19 -9 27 -21 12 -17 26 -21 71
-21 31 0 56 -2 56 -3 0 -2 -3 -11 -6 -19 -5 -12 -10 -14 -19 -6 -9 8 -14 6
-18 -5 -4 -9 2 -19 14 -26 34 -18 17 -28 -93 -54 -22 -5 -23 3 -1 27 9 10 11
18 5 18 -6 0 -14 -5 -17 -10 -9 -15 -26 -1 -24 18 3 29 -1 42 -11 42 -5 0 -10
-11 -10 -25 0 -18 -5 -25 -20 -25 -11 0 -20 -4 -20 -10 0 -5 5 -10 10 -10 6 0
10 -5 10 -11 0 -6 -6 -9 -14 -6 -8 3 -17 1 -19 -6 -2 -7 -4 1 -4 16 0 15 -9
37 -19 48 -14 15 -15 20 -4 17 9 -2 16 6 18 20 2 16 -3 25 -20 31 -23 10 -23
10 -1 10 12 1 25 -4 28 -9 11 -18 37 18 30 41 l-7 22 23 -22 c12 -11 28 -21
35 -21z m512 -19 c14 -8 41 -19 62 -26 3 -1 22 -5 43 -10 21 -4 41 -14 44 -21
3 -8 13 -14 23 -14 11 0 22 -4 25 -10 10 -17 25 -11 18 8 -4 11 3 7 22 -11 16
-15 34 -26 42 -23 17 7 43 -3 43 -17 0 -6 -3 -7 -7 -4 -3 4 -11 3 -18 -3 -17
-14 -124 -19 -128 -6 -2 7 -10 6 -22 -4 -11 -9 -16 -10 -11 -2 4 6 2 12 -3 12
-6 0 -11 -5 -11 -11 0 -5 -3 -8 -7 -6 -13 8 -33 -19 -33 -42 0 -5 -7 -12 -16
-15 -15 -6 -15 -4 -3 11 13 15 12 16 -6 9 -11 -5 -26 -9 -33 -9 -7 0 -11 -6
-8 -13 3 -8 0 -16 -6 -20 -6 -4 -9 -3 -6 2 3 5 -3 17 -14 27 -17 16 -18 16
-19 -5 -1 -13 -1 -29 0 -37 2 -7 -2 -10 -7 -7 -6 3 -8 24 -5 46 4 26 2 40 -6
40 -6 0 -11 -12 -12 -27 0 -16 -3 -22 -6 -15 -2 6 -9 12 -15 12 -6 0 -7 -7 -4
-16 5 -14 4 -15 -9 -4 -12 10 -15 10 -15 -4 0 -8 11 -18 24 -22 41 -10 67 -46
60 -82 -3 -17 -12 -33 -20 -36 -17 -7 -18 6 -2 22 12 12 -1 16 -41 15 -9 -1
-10 2 -3 9 7 7 7 20 0 40 -14 39 -24 30 -27 -24 -2 -34 -15 -11 -17 30 -2 50
-3 52 -14 52 -5 0 -10 -7 -10 -15 0 -8 -4 -15 -10 -15 -5 0 -7 -6 -4 -14 3 -8
0 -17 -7 -22 -7 -4 -10 -3 -6 3 4 6 0 13 -8 16 -9 4 -12 1 -9 -7 3 -7 -2 -13
-10 -13 -8 0 -13 3 -11 7 5 9 -32 50 -45 50 -6 0 -10 -7 -10 -15 0 -8 -1 -15
-3 -15 -1 0 -17 -4 -36 -10 l-34 -9 22 22 c11 13 21 31 21 41 0 9 4 15 9 12 5
-3 14 1 21 9 10 12 6 14 -25 11 -20 -1 -38 1 -41 6 -3 4 -10 8 -15 8 -5 0 -1
-10 11 -22 11 -12 20 -27 20 -34 0 -15 -29 -39 -37 -30 -3 3 -1 6 5 6 7 0 12
6 12 14 0 9 -10 12 -30 10 -22 -3 -28 0 -24 11 3 7 14 12 25 10 10 -2 19 1 19
7 0 5 -7 8 -15 4 -8 -3 -15 -1 -15 3 0 5 -8 7 -18 4 -10 -2 -31 1 -47 8 l-30
12 45 9 c25 5 54 11 66 14 21 4 54 69 54 105 0 9 7 16 15 16 8 0 15 -3 15 -6
0 -13 221 10 268 28 1 1 10 -3 20 -8z m-1168 -11 c13 -9 13 -10 0 -11 -10 0
-8 -3 5 -9 11 -5 14 -9 8 -11 -7 -1 -17 -3 -23 -4 -5 -1 -13 -3 -17 -4 -5 -1
0 -6 10 -12 9 -5 22 -7 29 -3 7 5 8 2 3 -7 -4 -8 2 -4 14 8 11 12 27 20 35 17
8 -3 17 0 21 6 4 6 1 11 -6 9 -8 -1 -22 -1 -33 0 -30 2 1 31 33 31 28 0 120
-53 189 -107 40 -33 42 -37 41 -86 -1 -29 -4 -40 -6 -24 -2 15 -9 25 -14 21
-5 -3 -7 -9 -5 -13 6 -8 -48 -6 -63 3 -5 4 -12 2 -16 -4 -4 -6 -11 -8 -16 -5
-5 4 -9 1 -9 -6 0 -7 -2 -10 -5 -7 -3 3 1 31 10 64 19 73 19 73 -5 67 -17 -5
-19 -11 -14 -43 4 -23 2 -40 -5 -44 -7 -4 -11 1 -11 13 0 23 -7 26 -29 12 -9
-6 -10 -11 -2 -15 13 -8 15 -26 3 -26 -5 0 -14 11 -20 25 -9 19 -8 26 1 32 7
4 23 25 35 46 12 21 18 35 12 32 -5 -3 -10 -2 -10 4 0 5 -8 9 -19 8 -16 -1
-18 -7 -13 -39 6 -48 -21 -64 -48 -28 l-17 23 -13 -34 -13 -34 -6 35 c-9 45
-18 60 -37 60 -8 0 -14 5 -14 10 0 6 -7 10 -15 10 -8 0 -15 5 -15 11 0 5 5 7
12 3 7 -5 9 -2 5 9 -4 12 -2 14 10 10 11 -4 14 -2 9 5 -9 14 13 16 34 2z"/>
<path d="M650 1505 c0 -14 -4 -33 -9 -43 -5 -9 -15 -37 -21 -62 -7 -25 -20
-61 -30 -80 -59 -117 -73 -139 -81 -134 -6 3 -7 -12 -5 -38 3 -24 3 -35 0 -25
-3 9 -10 17 -15 17 -6 0 -6 -6 0 -18 5 -10 6 -32 3 -51 l-7 -33 -21 29 c-11
15 -23 36 -27 46 -3 9 -11 17 -17 17 -5 0 -10 19 -11 43 -1 59 -7 37 -18 -68
-12 -110 -17 -135 -32 -149 -9 -8 -10 -8 -5 2 4 6 2 12 -3 12 -6 0 -11 -6 -11
-14 0 -8 -5 -18 -12 -22 -8 -5 -9 -2 -5 9 3 9 2 19 -3 22 -6 4 -10 -1 -10 -9
0 -9 -4 -16 -10 -16 -15 0 -109 123 -110 143 0 9 -4 17 -10 17 -21 0 -8 -30
42 -95 34 -43 48 -70 40 -73 -6 -2 -12 -10 -12 -18 0 -8 -3 -14 -7 -14 -5 0
-19 -18 -32 -40 -20 -33 -27 -37 -39 -27 -13 10 -14 8 -8 -11 6 -16 3 -22 -8
-22 -18 0 -18 -1 -21 123 -1 48 -5 90 -8 94 -4 3 -13 0 -22 -7 -13 -11 -14
-15 -1 -29 20 -23 29 -204 10 -197 -18 7 -18 6 11 -66 l25 -62 -23 22 c-32 30
-46 28 -17 -3 17 -18 21 -28 13 -36 -7 -7 -15 -5 -27 6 -9 9 -16 11 -16 5 0
-6 -8 -10 -17 -8 -11 2 -18 -3 -18 -12 -1 -24 -16 -42 -30 -36 -10 4 -13 -15
-11 -87 1 -51 6 -98 10 -106 6 -10 5 -12 -2 -7 -8 5 -12 -3 -12 -23 0 -16 6
-32 13 -34 9 -4 9 -6 0 -6 -10 -1 -13 -26 -12 -93 0 -51 3 -87 6 -80 2 6 12
12 21 12 14 -1 13 -4 -5 -19 -13 -11 -23 -30 -23 -42 0 -22 3 -21 38 14 l38
38 12 -26 c15 -33 15 -58 0 -73 -17 -17 -33 -15 -18 3 7 9 10 18 6 22 -3 4
-12 -8 -19 -26 -8 -22 -17 -31 -29 -28 -10 3 -18 -3 -21 -14 -4 -15 0 -19 23
-19 16 0 32 5 36 11 4 8 9 7 15 -2 7 -11 12 -12 29 -1 12 7 20 8 20 2 0 -5 7
-10 15 -10 8 0 15 9 15 19 0 11 5 23 10 26 6 4 8 11 4 16 -3 5 -2 8 3 7 4 -1
17 3 28 9 11 6 38 14 59 18 53 10 45 -10 -22 -54 -29 -19 -51 -36 -49 -38 9
-8 68 11 64 21 -3 6 7 12 20 13 18 1 22 -2 14 -10 -16 -16 -14 -27 5 -27 17 0
53 38 53 55 1 6 -8 -1 -19 -15 -15 -19 -20 -21 -20 -8 0 9 13 28 30 41 27 23
36 25 106 22 66 -3 73 -2 52 9 -13 7 -37 16 -52 20 -26 6 -21 11 85 72 63 36
123 74 135 85 11 10 24 19 28 19 5 0 29 15 55 34 25 18 64 43 86 55 37 19 38
21 13 21 -14 0 -28 -3 -30 -8 -5 -12 -108 -85 -113 -80 -8 7 92 142 115 156
11 7 26 10 33 6 7 -4 9 -4 5 1 -4 4 -3 14 3 22 17 20 1 16 -34 -9 -26 -19 -30
-20 -24 -4 4 10 7 22 7 27 0 6 4 8 9 5 4 -3 6 6 3 20 -6 35 -20 18 -30 -38 -5
-26 -22 -64 -38 -85 -17 -21 -42 -57 -57 -80 -25 -39 -103 -103 -131 -107 -7
-1 -25 -12 -41 -24 -57 -45 -116 -43 -69 2 19 19 23 27 11 22 -16 -5 -15 -2 5
23 24 30 123 94 144 94 7 0 11 4 8 9 -3 4 4 8 16 8 12 0 18 4 15 11 -4 6 2 13
14 16 12 3 21 10 21 15 0 5 -29 -6 -64 -25 -35 -20 -67 -33 -71 -29 -4 4 -5 1
-3 -6 2 -7 -17 -25 -42 -39 l-45 -27 20 24 c11 14 28 31 38 38 9 7 15 17 12
22 -3 5 0 12 6 16 8 5 9 3 4 -7 -5 -8 -4 -11 1 -6 5 5 9 14 9 20 0 6 14 12 30
14 17 2 53 10 80 18 l50 14 -50 -6 c-27 -3 -60 -10 -72 -14 -26 -10 -29 -4 -9
17 8 8 26 14 40 14 14 0 26 4 26 9 0 5 -9 7 -20 4 -15 -4 -19 -1 -15 9 7 18
36 35 93 54 55 19 127 66 136 89 9 26 7 57 -4 50 -5 -3 -10 -14 -10 -24 0 -10
-10 -26 -22 -37 l-23 -19 20 25 20 25 -27 -24 c-15 -13 -25 -27 -23 -31 2 -4
-11 -14 -29 -23 -29 -13 -34 -14 -32 -1 1 8 8 20 16 27 12 10 12 9 1 -5 -7
-10 -9 -18 -3 -18 14 0 35 28 28 38 -7 12 18 34 28 25 4 -4 4 0 1 8 -3 9 1 22
10 29 8 7 15 28 15 46 0 24 5 34 15 34 8 0 15 5 15 11 0 6 -6 9 -12 6 -7 -2
-18 10 -25 27 l-11 31 -1 -32 c-1 -19 -6 -33 -13 -33 -7 0 -24 -3 -38 -5 l-25
-6 23 11 c13 5 22 16 19 22 -2 7 5 24 17 37 l21 24 -27 -19 c-15 -10 -26 -24
-23 -31 3 -8 -8 -10 -35 -8 -32 4 -41 0 -54 -20 -10 -16 -26 -25 -42 -25 -22
0 -23 2 -14 20 13 24 78 58 102 53 9 -2 19 0 22 6 4 5 -3 7 -16 3 -21 -5 -22
-4 -9 11 16 20 -1 23 -21 4 -18 -19 -59 -40 -64 -34 -3 3 12 15 33 28 63 39
158 110 162 122 2 7 -12 0 -32 -16 -33 -25 -58 -23 -42 3 3 6 1 10 -4 10 -6 0
-11 -10 -11 -23 0 -23 -29 -56 -67 -75 -10 -5 -41 -8 -70 -6 -47 3 -52 1 -55
-18 -3 -22 -64 -66 -75 -55 -3 4 0 21 7 39 13 34 164 188 184 188 6 0 16 10
21 22 6 12 54 51 107 87 108 74 158 116 158 133 0 6 -16 -5 -36 -26 -39 -40
-132 -106 -150 -106 -7 0 -43 -31 -82 -70 -38 -38 -76 -70 -83 -69 -11 0 -11
2 -1 6 17 7 75 93 62 93 -5 0 -10 -4 -10 -8 0 -5 -15 -26 -33 -48 -19 -21 -32
-44 -30 -51 2 -6 0 -14 -5 -17 -5 -3 -8 7 -7 22 2 41 95 175 110 160 4 -4 2
-16 -5 -27 -19 -37 -1 -22 27 22 27 42 36 50 126 134 26 24 47 47 47 50 0 4 7
15 17 25 15 17 15 18 0 18 -10 0 -17 -5 -17 -10 0 -22 -125 -150 -147 -150 -6
0 -13 -3 -15 -8 -1 -4 -22 -22 -45 -40 -42 -33 -63 -35 -63 -6 0 8 -4 14 -10
14 -5 0 -9 -9 -7 -20 1 -13 -9 -27 -30 -41 l-33 -21 15 48 c10 34 31 65 73
108 71 74 140 176 118 176 -2 0 -16 -21 -31 -46 -15 -26 -54 -74 -86 -108 -64
-66 -65 -60 -11 49 16 33 37 85 47 115 10 30 24 72 31 93 12 32 12 37 -1 37
-9 0 -15 -10 -15 -25z m-170 -514 c-1 -29 -2 -33 -11 -18 -5 9 -15 17 -20 17
-6 0 -2 -12 9 -27 15 -23 17 -35 10 -63 -5 -19 -10 -43 -11 -52 -1 -10 -7 -18
-15 -18 -7 0 -10 -5 -7 -10 4 -6 1 -18 -6 -27 -8 -9 -14 -21 -14 -27 -2 -20
-17 -46 -28 -46 -5 0 -2 9 8 20 10 11 16 23 13 26 -3 3 -15 -7 -27 -22 l-21
-27 0 28 c0 15 8 34 18 41 16 13 16 14 0 8 -22 -7 -36 22 -19 39 17 17 13 31
-5 16 -14 -11 -15 -9 -12 17 2 17 9 29 17 29 8 0 16 6 19 13 2 6 -2 12 -8 12
-9 0 -8 7 3 23 8 13 18 46 22 73 4 27 14 55 23 61 13 11 19 7 39 -19 14 -20
23 -45 23 -67z m270 -330 c0 -10 -20 -40 -45 -66 -24 -27 -41 -53 -38 -58 3
-6 1 -7 -5 -3 -5 3 -12 3 -15 -1 -2 -5 -2 -2 -1 5 5 18 -7 43 -17 36 -5 -3 -7
-10 -4 -15 11 -17 -5 -48 -21 -42 -9 3 -14 0 -12 -8 3 -12 -103 -78 -126 -79
-6 0 6 16 25 37 18 20 28 33 22 29 -16 -9 -16 -1 -2 27 17 33 81 127 88 128 3
1 35 7 71 14 36 7 68 13 73 14 4 0 7 -7 7 -18z"/>
<path d="M6677 1474 c-3 -4 -29 -6 -58 -5 -33 0 -56 -5 -66 -14 -8 -8 -19 -12
-25 -9 -5 3 -30 3 -55 -1 -31 -4 -42 -10 -33 -15 8 -5 -23 -10 -76 -12 -49 -2
-92 1 -95 6 -9 11 -39 0 -39 -14 0 -33 173 -46 210 -15 31 26 274 47 296 26 8
-9 66 0 114 17 20 7 28 9 40 11 6 0 10 5 10 10 0 13 -105 25 -127 16 -27 -11
-67 -13 -79 -3 -6 4 -14 5 -17 2z"/>
<path d="M7302 1430 c-12 -5 -28 -7 -36 -4 -8 3 -17 1 -21 -5 -3 -6 -17 -8
-31 -5 -15 4 -31 1 -42 -8 -9 -8 -35 -15 -57 -17 -22 -1 -56 -6 -75 -10 -19
-5 -60 -9 -90 -10 -30 0 -64 -3 -75 -5 -11 -3 -26 -5 -32 -5 -28 -2 -11 -19
25 -26 36 -7 36 -7 12 -18 -25 -10 -25 -10 10 -18 19 -5 46 -5 60 0 14 5 44
14 68 22 26 8 38 15 31 20 -8 4 1 10 22 13 19 3 63 11 99 17 57 9 65 9 77 -7
7 -10 13 -13 13 -6 0 6 19 20 43 31 35 16 38 19 18 20 -42 2 -12 16 47 22 l57
6 -50 1 c-27 0 -60 -3 -73 -8z"/>
<path d="M6560 1362 c0 -10 -15 -13 -55 -11 -30 1 -58 0 -62 -4 -9 -9 -45 -9
-40 1 3 4 -24 7 -60 6 -53 -1 -69 -5 -82 -21 -16 -21 -58 -39 -76 -34 -17 5
-93 -42 -98 -61 -3 -10 -12 -18 -21 -18 -9 0 -16 -5 -16 -11 0 -7 -7 -17 -16
-24 -14 -10 -10 -13 29 -18 26 -4 57 -3 69 2 84 32 145 35 211 12 34 -12 44
-10 110 13 40 14 81 24 92 22 11 -3 23 -5 28 -5 4 -1 7 -9 7 -18 0 -15 -2 -16
-10 -3 -8 12 -12 11 -30 -8 -11 -12 -28 -22 -38 -22 -78 -2 -180 -12 -202 -20
-3 -1 -16 -3 -29 -3 -34 -3 -38 -25 -5 -33 20 -5 39 -1 68 16 70 40 216 24
245 -27 8 -15 26 -18 123 -19 63 0 119 -4 126 -8 14 -8 56 13 96 49 39 36 24
49 -40 35 -110 -25 -141 -20 -91 15 19 13 20 17 7 25 -8 5 -10 10 -5 10 6 0 4
4 -3 8 -9 6 -5 12 14 20 23 11 26 10 31 -8 4 -14 11 -19 23 -15 22 7 112 -14
122 -28 10 -16 143 -12 143 4 0 7 -18 14 -45 16 -58 5 -73 10 -65 24 4 6 22 8
45 4 29 -5 39 -3 43 9 6 14 -8 16 -111 15 -180 -2 -224 1 -212 17 8 9 7 15 -6
22 -16 9 -16 11 4 23 12 8 22 16 22 19 0 3 -27 3 -60 2 -36 -2 -60 0 -60 6 0
6 6 13 13 15 6 3 2 6 -10 6 -12 1 -24 -3 -28 -9 -4 -6 -15 -6 -32 1 -19 7 -28
6 -34 -2 -4 -8 -10 -6 -18 7 -6 11 -11 14 -11 6z"/>
<path d="M9704 1313 c-13 -6 -24 -9 -24 -5 0 4 -4 1 -8 -5 -4 -7 -22 -14 -40
-16 -18 -2 -35 -7 -39 -10 -3 -4 -19 -7 -34 -7 -15 0 -31 -5 -35 -11 -5 -8
-30 -10 -80 -5 -56 4 -74 3 -74 -7 0 -8 -19 -13 -52 -15 -29 -1 -57 -7 -62
-12 -6 -6 -19 -10 -30 -10 -16 0 -17 -3 -8 -12 10 -10 17 -10 32 0 24 15 33
15 24 1 -4 -8 3 -9 22 -6 16 3 51 9 77 12 27 4 59 9 70 13 12 3 76 6 142 7
127 0 187 15 182 45 -1 11 7 15 33 13 26 -1 39 3 48 18 7 10 8 19 3 19 -5 0
-11 -5 -13 -11 -3 -8 -10 -6 -21 5 -19 19 -76 19 -113 -1z"/>
<path d="M5581 1297 c-4 -4 -32 -8 -62 -8 -30 0 -79 -5 -109 -10 -103 -18
-101 -18 -90 -38 19 -36 77 -63 145 -67 59 -4 67 -2 90 20 14 14 25 31 25 39
0 7 11 23 25 35 14 12 25 26 25 31 0 12 -37 10 -49 -2z"/>
<path d="M4976 1254 c-11 -8 -14 -14 -8 -14 7 0 12 -4 12 -10 0 -5 -8 -10 -17
-10 -9 0 -25 -7 -35 -17 -15 -13 -23 -14 -44 -5 -31 15 -37 15 -29 1 5 -7 -8
-9 -41 -5 -27 3 -41 3 -31 0 9 -3 17 -9 17 -14 0 -4 34 -16 75 -25 41 -10 74
-20 72 -22 -4 -3 -29 -7 -129 -18 -21 -2 -42 -6 -47 -9 -5 -3 -24 0 -42 8
l-34 14 30 7 c17 3 39 10 50 15 17 7 17 9 3 9 -10 1 -18 5 -18 11 0 5 -10 8
-22 6 -13 -3 -29 -5 -37 -5 -8 -1 -11 -7 -7 -17 5 -14 2 -15 -21 -9 -64 17
-130 17 -146 1 -8 -9 -22 -16 -30 -16 -9 0 -17 -4 -19 -9 -1 -4 -27 -5 -56 -1
-29 3 -55 3 -58 -2 -3 -4 0 -8 5 -8 6 0 11 -4 11 -10 0 -14 -30 -12 -60 3 -40
21 -62 28 -55 17 3 -5 -7 -8 -24 -7 -16 1 -27 6 -24 10 3 5 -5 7 -18 5 -12 -1
-24 -10 -26 -18 -4 -13 -3 -13 7 0 9 12 10 9 8 -15 -4 -37 -37 -46 -56 -15
-11 18 -10 20 8 20 22 0 28 19 8 22 -53 6 -69 3 -65 -13 4 -15 -8 -17 -117
-16 -159 2 -246 -5 -246 -20 0 -6 6 -13 13 -16 6 -3 -3 -11 -21 -19 -18 -8
-30 -17 -27 -20 5 -5 -15 -8 -52 -8 -13 0 -23 -6 -23 -13 0 -9 -2 -9 -9 1 -4
7 -14 14 -22 15 -8 2 -20 6 -27 10 -19 12 -52 -2 -62 -26 l-9 -22 -7 23 c-9
32 -27 27 -22 -6 2 -16 -2 -34 -8 -40 -17 -15 -94 -28 -94 -15 0 18 46 53 70
53 18 0 21 3 13 11 -9 9 -22 8 -51 -4 -22 -9 -42 -13 -46 -10 -3 3 -12 0 -20
-6 -8 -7 -20 -10 -27 -6 -7 5 -9 1 -5 -12 10 -31 -13 -41 -91 -39 -65 1 -72
-1 -67 -16 4 -15 -1 -18 -36 -18 -23 0 -50 -5 -61 -10 -12 -7 -19 -7 -19 -1 0
6 -7 8 -15 4 -14 -5 -14 -8 0 -29 14 -21 14 -24 0 -24 -8 0 -15 -4 -15 -9 0
-5 -12 -12 -27 -16 -19 -4 -23 -9 -14 -14 10 -6 9 -10 -5 -15 -16 -6 -59 26
-48 36 4 5 -24 4 -76 0 -13 -1 -17 -7 -14 -17 4 -11 2 -13 -9 -9 -8 3 -18 1
-22 -5 -7 -12 -5 -12 62 -14 23 -1 45 -6 50 -11 5 -5 1 -7 -8 -4 -9 4 -22 2
-30 -3 -10 -6 -2 -9 24 -9 22 0 37 5 37 12 0 9 3 9 12 0 18 -18 46 -15 44 6
-1 11 6 17 19 17 11 0 25 3 30 6 6 3 37 12 70 19 33 8 65 22 72 31 14 19 53
32 53 18 0 -5 24 -9 54 -9 43 0 58 -4 69 -20 9 -13 20 -17 35 -13 22 5 30 22
12 24 -5 1 -14 2 -19 3 -5 0 -13 5 -18 10 -5 5 5 6 24 3 17 -3 46 -2 65 4 46
14 156 19 183 9 13 -5 36 -5 52 -1 18 5 40 3 63 -7 38 -16 82 -11 134 13 28
13 42 15 66 7 19 -7 32 -7 36 -1 3 6 18 8 32 5 15 -3 59 -6 97 -6 107 0 106
-1 93 14 -8 8 -26 10 -52 6 -23 -3 -54 -4 -71 -3 -16 1 -47 3 -68 4 -38 2 -39
2 -19 21 27 27 91 34 130 14 26 -14 35 -14 52 -4 18 11 23 10 34 -4 7 -10 19
-18 27 -18 11 0 11 2 -1 10 -10 6 -11 12 -5 19 20 18 132 60 178 65 26 3 60
12 75 20 25 13 29 12 55 -15 23 -24 26 -30 13 -35 -27 -10 -18 -24 15 -24 33
0 103 26 189 69 30 16 71 32 90 36 19 4 46 15 59 24 18 11 49 16 106 16 95 1
160 12 176 31 6 8 18 14 25 14 30 0 12 16 -21 18 -24 2 -41 -4 -55 -18 -11
-11 -24 -20 -29 -20 -16 0 -3 41 16 56 16 12 13 14 -27 15 -25 0 -61 1 -80 1
-19 -1 -27 2 -17 4 9 3 17 10 17 15 0 5 10 9 23 9 12 0 31 7 42 16 16 12 17
16 6 23 -8 5 -20 7 -28 4 -7 -3 -19 -1 -26 5 -8 7 -18 6 -31 -4z"/>
<path d="M1218 986 c-23 -17 -23 -26 2 -26 11 0 20 -6 20 -13 0 -9 -29 -17
-90 -26 l-89 -13 42 -39 c27 -25 47 -37 57 -32 39 17 101 15 140 -6 47 -24 85
-26 120 -6 25 14 25 14 -10 9 -26 -4 -31 -3 -20 5 22 16 84 13 141 -5 39 -13
56 -14 74 -6 20 9 33 7 67 -8 49 -22 79 -25 95 -9 7 7 31 9 65 5 29 -4 69 -8
88 -9 19 -2 40 -6 47 -10 17 -11 60 2 67 20 3 8 10 12 15 9 4 -3 18 3 30 13
21 18 21 18 -31 26 -29 4 -64 7 -77 6 -14 -2 -21 1 -17 8 4 6 19 11 34 11 15
0 45 7 67 14 25 9 44 11 51 5 17 -14 92 -1 144 24 l44 22 -69 10 c-59 9 -66
12 -45 20 22 7 19 9 -24 12 -33 3 -52 0 -57 -9 -6 -10 -55 -13 -207 -14 -110
-1 -205 -5 -212 -9 -9 -6 -11 -4 -5 4 6 10 3 11 -14 1 -13 -6 -27 -8 -34 -3
-7 5 -25 10 -42 12 -27 3 -28 2 -15 -14 13 -16 13 -17 -5 -12 -47 13 -113 24
-190 31 -27 3 -70 7 -95 11 -30 3 -51 1 -62 -9z"/>
<path d="M6325 915 c-5 -2 -22 -6 -36 -9 -22 -5 -25 -10 -22 -30 4 -20 0 -26
-21 -32 -33 -8 -60 -8 -115 2 -39 6 -44 5 -38 -9 6 -15 -3 -22 -25 -18 -5 0
-8 -3 -8 -8 0 -13 48 -23 63 -14 16 11 110 10 118 -1 4 -4 24 7 45 26 22 19
53 41 69 49 37 17 40 43 5 46 -14 1 -29 0 -35 -2z"/>
<path d="M2500 833 c0 -6 10 -15 23 -21 12 -6 16 -11 9 -11 -7 -1 -10 -5 -7
-11 3 -5 -2 -10 -13 -10 -10 0 -22 -3 -25 -7 -4 -3 -22 -8 -40 -10 -39 -4 -57
-8 -77 -16 -8 -3 -35 -10 -59 -14 -47 -9 -57 -19 -41 -43 7 -11 31 -15 97 -16
113 -1 113 -1 113 -20 0 -8 5 -12 10 -9 6 3 10 1 10 -4 0 -6 5 -11 11 -11 5 0
8 4 4 9 -3 5 5 11 17 13 13 2 22 9 20 16 -1 8 1 11 6 8 5 -3 22 2 38 11 16 9
52 16 81 17 28 0 49 4 46 9 -3 5 4 4 16 -2 11 -6 32 -9 46 -5 21 5 23 9 14 20
-6 8 -21 14 -33 13 -51 -5 -64 0 -59 21 4 15 0 20 -14 20 -10 0 -24 5 -31 12
-9 9 -12 9 -12 0 0 -7 -3 -11 -7 -10 -5 0 -16 -2 -26 -7 -22 -9 -35 1 -19 17
19 19 14 25 -20 31 -18 3 -43 8 -55 12 -13 4 -23 3 -23 -2z"/>
<path d="M2050 709 c0 -3 -21 -7 -46 -7 -25 -1 -54 -7 -64 -12 -10 -5 -26 -7
-34 -4 -9 3 -16 2 -16 -4 0 -5 11 -13 25 -16 14 -4 25 -11 25 -16 0 -6 10 -8
23 -6 12 3 58 8 102 11 86 6 171 31 180 53 4 10 -16 12 -95 10 -55 -2 -100 -6
-100 -9z"/>
<path d="M4486 633 c-4 -21 -7 -50 -7 -65 0 -20 -4 -26 -16 -21 -13 5 -14 3
-4 -16 7 -12 10 -27 7 -34 -2 -7 -5 -4 -5 6 -1 9 -6 17 -12 17 -7 0 -8 -7 -4
-17 12 -29 16 -105 5 -98 -6 3 -10 2 -10 -4 0 -5 4 -12 10 -16 6 -4 6 -15 -1
-32 -5 -15 -12 -58 -15 -97 -4 -39 -10 -78 -16 -86 -6 -11 -7 -9 -3 8 4 13 1
30 -6 38 -10 13 -10 17 1 24 15 9 22 68 9 76 -5 3 -9 -7 -9 -21 0 -15 -5 -36
-11 -47 -7 -14 -8 -23 -1 -30 12 -12 4 -40 -9 -32 -5 3 -9 0 -9 -5 0 -6 4 -11
10 -11 10 0 24 -62 18 -81 -2 -6 -16 12 -32 41 -21 39 -25 54 -16 60 9 6 10 9
0 15 -7 4 -17 1 -22 -6 -8 -11 -8 -10 -4 4 3 10 1 28 -5 39 -6 11 -7 18 -2 15
5 -4 10 0 10 8 0 8 -4 12 -8 10 -4 -3 -9 9 -11 26 -3 16 -1 32 3 35 4 2 10 18
14 34 4 17 14 38 23 47 9 9 17 19 18 22 0 3 4 19 9 34 6 21 10 25 16 15 7 -10
9 -9 9 4 0 9 6 18 13 21 9 3 9 8 -2 18 -9 9 -11 9 -7 2 4 -8 1 -13 -8 -13 -9
0 -16 8 -16 18 0 14 -2 14 -9 3 -5 -8 -7 -20 -4 -26 2 -7 -4 -30 -13 -51 l-18
-39 -4 33 c-2 24 2 38 15 49 10 8 12 11 4 7 -9 -4 -12 -3 -8 4 9 14 -3 43 -14
36 -9 -5 -13 17 -10 45 2 7 -2 10 -8 7 -5 -4 -8 -19 -7 -34 2 -15 4 -33 5 -40
0 -7 4 -11 9 -9 4 3 5 -16 3 -41 -3 -44 -4 -45 -17 -21 -7 13 -13 18 -14 10 0
-8 7 -22 16 -32 16 -18 12 -75 -5 -65 -10 6 -39 -28 -38 -46 1 -34 -4 -49 -15
-42 -8 5 -9 2 -5 -9 3 -10 3 -25 0 -34 -5 -13 -10 -3 -18 32 -9 41 -9 53 3 67
12 15 12 16 -9 11 -19 -5 -21 -3 -17 20 3 16 1 25 -6 24 -6 -1 -10 11 -8 28 2
28 1 28 -8 7 -7 -17 -5 -38 10 -80 18 -50 18 -57 4 -65 -14 -8 -14 -11 2 -28
16 -18 16 -19 -2 -20 -16 0 -16 -1 4 -9 14 -6 22 -17 21 -32 0 -18 -2 -19 -7
-7 -5 13 -10 14 -17 5 -17 -19 -17 -46 0 -46 10 0 13 5 9 13 -5 9 -4 9 6 0 9
-8 9 -16 1 -30 -6 -10 -11 -13 -11 -6 0 15 -40 4 -40 -11 0 -6 -7 -3 -15 8
-11 14 -12 24 -4 39 8 14 8 22 0 27 -7 3 -9 14 -5 23 3 9 2 17 -4 17 -5 0 -13
-7 -16 -16 -4 -9 -13 -14 -21 -10 -9 3 -15 0 -15 -9 0 -8 7 -15 15 -15 8 0 15
-4 15 -9 0 -11 -39 -3 -58 12 -7 6 -12 20 -11 31 3 42 -1 53 -12 33 -5 -9 -7
-23 -4 -30 4 -6 -1 -3 -9 7 -19 23 -20 49 -5 78 13 24 2 39 -12 18 -8 -11 -9
-6 -6 20 3 19 3 29 0 23 -2 -7 -8 -13 -13 -13 -9 0 -21 40 -12 41 4 0 17 2 30
5 16 3 21 0 16 -8 -4 -7 -3 -8 5 -4 7 4 31 10 54 13 45 5 57 10 57 23 0 5 -30
9 -66 9 -36 0 -71 5 -79 11 -8 7 -15 7 -19 1 -7 -11 -25 -9 -45 3 -11 7 -13 5
-8 -7 3 -9 2 -19 -3 -22 -6 -4 -10 1 -10 9 0 9 -4 16 -10 16 -5 0 -10 -11 -10
-24 0 -40 -10 -58 -25 -46 -17 14 -32 -7 -16 -23 13 -13 15 -30 2 -22 -5 3
-12 -3 -15 -12 -2 -10 -4 2 -3 27 0 25 9 64 19 88 10 24 18 53 18 65 -1 19
-15 -13 -42 -93 -3 -10 -14 3 -31 35 -14 28 -26 44 -27 37 0 -7 9 -31 20 -53
14 -27 20 -56 19 -89 l-3 -50 -33 20 c-46 27 -51 25 -22 -6 23 -25 23 -26 2
-15 -16 8 -24 8 -29 -1 -4 -6 -3 -8 3 -5 6 4 13 -2 16 -13 5 -18 3 -19 -24 -4
-34 17 -39 2 -6 -21 l22 -17 -24 7 c-16 5 -21 4 -17 -4 4 -6 15 -11 25 -11 10
0 23 -6 29 -13 8 -10 6 -13 -11 -14 -17 -2 -19 0 -7 7 9 6 10 10 3 10 -6 0
-19 -10 -27 -22 -9 -12 -16 -17 -16 -10 0 7 -4 10 -10 7 -5 -3 -10 -1 -10 5 0
7 7 9 16 6 10 -4 14 -2 11 6 -2 7 -10 12 -16 11 -6 -2 -11 2 -11 9 0 21 -21
-7 -23 -31 -1 -18 -3 -20 -12 -8 -9 12 -12 12 -23 1 -7 -8 -12 -17 -11 -20 2
-17 -27 -21 -48 -7 -14 10 -23 11 -23 4 0 -6 4 -11 8 -11 5 0 9 -7 9 -15 0
-10 -6 -14 -15 -10 -9 3 -12 0 -9 -9 6 -16 -26 -32 -42 -21 -5 3 -12 1 -16 -5
-3 -5 -17 -10 -29 -10 -13 0 -36 -6 -51 -14 -15 -8 -33 -12 -41 -9 -7 2 -22
-2 -33 -9 -18 -13 -14 -15 52 -27 80 -14 133 -12 130 6 -3 15 25 25 33 11 4
-5 0 -14 -7 -19 -10 -6 -10 -9 -2 -9 7 0 23 12 36 26 16 17 27 22 31 15 4 -6
11 -9 15 -7 12 8 81 -14 81 -24 0 -6 26 -10 58 -10 31 0 52 4 46 8 -8 5 -5 13
8 27 15 15 18 16 13 3 -5 -13 -2 -15 13 -11 12 3 22 -1 25 -11 8 -21 37 -21
37 0 0 8 4 13 9 10 5 -4 12 0 15 6 3 7 3 3 0 -9 -4 -17 -1 -23 10 -23 9 0 16
9 16 21 0 11 4 18 10 14 5 -3 7 -12 3 -20 -3 -8 0 -15 6 -15 6 0 11 5 11 12 0
9 3 9 12 0 20 -20 58 -15 58 7 0 22 16 36 24 22 6 -10 31 -9 42 1 10 11 33 -3
28 -17 -3 -7 0 -16 7 -21 7 -4 15 -2 17 4 2 7 8 12 13 12 6 0 7 -5 4 -10 -4
-6 29 -10 92 -10 l98 0 1 63 c1 45 -1 54 -6 32 -7 -26 -8 -23 -9 20 -1 45 0
48 13 30 7 -11 20 -36 29 -56 12 -30 12 -38 1 -54 -20 -27 -17 -35 11 -35 18
0 25 5 25 19 0 10 7 24 15 31 10 9 15 9 15 1 0 -6 5 -11 11 -11 8 0 8 4 0 14
-9 11 -9 19 1 35 15 25 28 27 28 6 0 -8 -5 -15 -12 -15 -7 0 -6 -5 4 -12 9 -7
18 -25 22 -40 4 -19 13 -28 27 -28 11 0 31 12 44 28 13 15 25 21 25 14 0 -7
-7 -15 -16 -19 -13 -5 -13 -7 -2 -14 25 -16 63 -8 101 20 37 28 84 101 66 101
-5 0 -15 -12 -21 -27 -15 -33 -42 -59 -82 -80 l-29 -15 28 48 c16 27 34 52 41
57 7 4 11 14 8 22 -3 8 6 26 20 40 20 20 22 25 8 23 -17 -3 -78 -86 -74 -101
2 -9 -26 -67 -33 -67 -2 0 -2 7 1 15 4 9 1 15 -7 15 -8 0 -5 6 7 15 10 8 15
15 10 15 -4 0 -1 11 7 23 8 13 20 41 26 63 6 21 23 53 37 69 l25 30 -7 -29
c-5 -21 -4 -27 5 -22 6 4 11 12 11 18 0 12 30 37 44 38 5 0 4 -6 -2 -13 -9
-10 -5 -13 19 -11 36 2 52 14 20 14 -12 0 -20 4 -16 9 10 17 -29 18 -49 2 -11
-9 -16 -10 -12 -3 4 6 3 12 -3 12 -6 0 -1 16 11 36 13 23 26 33 35 29 11 -3
13 -1 10 10 -4 8 -1 17 5 21 7 4 8 3 4 -5 -13 -21 21 -22 56 -2 19 12 51 21
74 20 67 0 126 7 214 29 47 11 98 19 115 17 16 -2 35 1 43 7 18 15 232 20 249
6 9 -7 17 -7 26 0 7 6 51 31 99 55 48 25 100 54 115 64 15 11 55 26 88 33 60
14 75 23 75 49 0 11 -10 12 -47 6 -27 -4 -55 -7 -63 -7 -8 0 -25 -4 -37 -10
-18 -9 -27 -8 -45 8 l-23 19 20 -24 20 -24 -37 5 c-27 3 -38 0 -38 -9 0 -7 -6
-13 -14 -13 -8 0 -17 -6 -19 -12 -4 -10 -8 -9 -16 2 -5 8 -13 11 -17 8 -3 -4
-19 -1 -35 7 -32 17 -69 20 -69 5 0 -6 -9 -6 -22 -1 -23 7 -64 7 -143 -3 -22
-3 -60 -7 -85 -10 -119 -12 -160 -27 -129 -47 9 -7 5 -8 -13 -3 -15 3 -32 3
-38 -1 -7 -4 -31 -9 -54 -11 -56 -5 -88 -10 -106 -17 -8 -3 -27 -8 -42 -11
-16 -4 -27 -12 -25 -18 1 -7 -5 -13 -13 -13 -8 0 -14 -7 -12 -13 2 -10 -3 -10
-18 -2 -11 6 -26 8 -33 4 -8 -5 -7 -2 2 9 7 9 18 14 24 10 5 -3 7 -1 3 5 -3 6
3 13 14 17 11 3 23 17 26 31 3 13 10 24 15 24 5 0 9 5 9 11 0 7 -10 5 -25 -5
-30 -20 -31 -12 -6 30 10 17 16 36 12 43 -7 11 -32 -34 -46 -87 -4 -12 -11
-19 -17 -16 -6 4 -9 1 -6 -7 7 -18 -10 -51 -23 -44 -5 4 -9 -3 -9 -15 0 -13
-4 -19 -12 -14 -7 5 -9 0 -6 -14 5 -17 -1 -23 -36 -34 -30 -9 -42 -19 -44 -35
-4 -26 -12 -28 -32 -10 -8 6 -7 2 3 -9 11 -13 18 -39 19 -69 0 -35 3 -43 10
-32 5 10 7 34 5 54 -3 21 -1 48 4 60 7 20 12 21 34 13 22 -8 25 -7 26 13 1 18
2 19 6 3 6 -22 -26 -98 -38 -90 -5 3 -9 -3 -9 -13 0 -11 -11 -34 -25 -53 -14
-19 -25 -40 -25 -48 0 -7 -5 -10 -11 -6 -7 4 -9 0 -5 -14 9 -28 -12 -72 -31
-65 -12 5 -14 1 -9 -14 3 -11 -1 -27 -10 -39 -8 -10 -13 -14 -10 -7 3 6 2 22
-3 35 -9 22 -10 22 -12 -7 -1 -16 0 -36 1 -44 1 -10 -3 -9 -16 4 -15 14 -15
20 -5 37 7 11 10 23 7 26 -3 3 -6 0 -6 -6 0 -7 -5 -12 -11 -12 -7 0 -10 17 -7
44 3 43 2 44 -25 41 -22 -3 -30 1 -38 21 -9 27 -3 70 12 80 5 3 4 -7 -1 -21
-13 -33 -13 -48 -1 -40 5 3 12 -4 16 -15 3 -11 11 -20 18 -20 8 0 8 3 -1 12
-9 9 -8 16 5 32 10 12 11 15 3 9 -30 -27 -40 -5 -18 42 8 19 14 22 20 13 6 -9
7 -6 3 8 -4 16 3 27 35 49 22 15 40 32 40 38 0 6 3 7 6 4 4 -3 16 -1 27 4 16
9 17 13 6 20 -10 6 -11 9 -1 9 6 0 12 5 12 11 0 8 -5 8 -15 -1 -8 -7 -13 -16
-10 -20 3 -5 2 -11 -3 -14 -11 -7 -12 26 -1 40 5 7 3 11 -6 11 -8 0 -12 -3
-10 -7 2 -3 -5 -11 -16 -18 -27 -17 -26 11 2 39 31 31 16 34 -19 4 l-31 -26
10 36 c6 19 7 39 4 44 -3 5 3 12 12 14 16 4 17 5 1 6 -10 0 -23 -9 -29 -21
-12 -23 -28 -38 -41 -38 -12 0 4 33 34 70 37 46 36 64 -2 21 l-29 -33 6 66 c6
71 -1 90 -11 29z"/>
<path d="M838 595 c-16 -21 -16 -24 -2 -36 15 -12 108 -31 149 -31 36 1 85 14
85 23 0 5 7 6 16 2 11 -4 15 -2 13 6 -3 9 -84 47 -84 40 0 0 -11 4 -25 9 -14
5 -50 9 -80 10 -47 1 -58 -3 -72 -23z"/>
<path d="M1970 469 c-59 -10 -113 -50 -103 -76 5 -12 29 -13 152 -8 80 4 158
6 173 6 22 -1 25 2 21 19 -3 11 -14 20 -24 20 -10 0 -23 8 -29 18 -11 16 -11
16 -6 0 3 -12 0 -18 -9 -18 -8 0 -15 5 -15 11 0 6 -9 8 -20 4 -11 -3 -20 -2
-20 3 0 6 -9 8 -20 5 -12 -3 -22 1 -26 11 -3 9 -9 15 -13 15 -3 -1 -31 -5 -61
-10z"/>
<path d="M1030 307 c0 -9 -7 -17 -15 -17 -24 0 -6 -28 23 -35 15 -4 21 -10 15
-12 -7 -3 -13 -12 -13 -20 0 -13 -2 -13 -16 -2 -14 11 -18 11 -28 -4 -8 -9
-22 -15 -34 -12 -16 3 -19 0 -15 -12 5 -13 3 -14 -16 -4 -18 10 -25 8 -48 -16
l-27 -28 23 39 c12 21 19 41 16 45 -4 3 -11 -2 -16 -12 -6 -9 -19 -17 -31 -17
-17 0 -18 2 -8 15 7 9 10 19 6 22 -4 4 -11 1 -16 -7 -6 -8 -10 -10 -10 -5 0 6
-7 1 -15 -9 -14 -19 -15 -19 -15 7 0 15 -4 27 -9 27 -5 0 -18 3 -28 6 -11 4
-14 3 -6 -3 17 -12 35 -63 23 -63 -6 0 -4 -10 4 -22 7 -13 16 -38 20 -56 5
-28 1 -40 -24 -70 -54 -66 -22 -45 59 37 44 45 80 88 78 94 -1 7 5 10 13 8 8
-2 20 -4 25 -5 6 -1 20 -6 32 -10 14 -5 31 -1 48 10 14 9 28 14 32 10 3 -3 1
-6 -6 -6 -9 0 -12 -12 -9 -39 2 -30 -1 -42 -15 -50 -10 -7 -23 -9 -28 -5 -6 3
-25 -4 -42 -16 -23 -18 -29 -19 -24 -7 4 10 2 17 -3 17 -6 0 -10 -5 -10 -11 0
-5 -15 -23 -32 -40 l-32 -29 26 0 c25 0 123 48 115 57 -3 2 -21 -6 -41 -18
-20 -12 -39 -19 -42 -16 -9 9 68 48 85 42 9 -2 29 6 45 19 24 19 30 31 30 64
1 31 4 38 15 32 17 -9 51 -1 51 12 0 7 4 7 13 0 8 -7 19 -6 37 3 14 8 21 15
15 15 -5 1 5 7 23 14 l34 12 -32 31 c-27 27 -35 30 -51 20 -15 -9 -24 -9 -39
1 -12 7 -25 10 -30 7 -5 -3 -12 0 -15 5 -5 7 -11 5 -19 -6 -12 -16 -14 -15
-29 7 -14 19 -17 20 -17 6z"/>
<path d="M5082 288 c-7 -7 -12 -19 -12 -28 0 -9 -5 -21 -12 -28 -9 -9 -9 -18
1 -38 6 -15 9 -29 6 -32 -3 -3 -5 1 -6 9 -1 8 -4 3 -8 -10 -4 -14 -13 -27 -20
-29 -9 -3 -11 0 -6 9 5 8 -1 5 -13 -5 -12 -11 -20 -22 -17 -25 4 -3 10 1 15 9
6 8 10 11 10 6 0 -5 -8 -18 -17 -28 -15 -17 -15 -21 -3 -29 12 -8 10 -9 -7 -4
-18 5 -20 3 -16 -15 5 -17 2 -21 -13 -20 -34 4 -45 0 -38 -12 5 -7 3 -8 -5 -3
-9 5 -10 10 -2 18 16 16 14 27 -3 21 -8 -3 -17 -13 -19 -22 -3 -10 -5 1 -6 24
0 22 6 49 14 60 25 33 16 37 -13 6 -22 -24 -27 -37 -24 -65 2 -21 -1 -38 -9
-42 -7 -5 -10 -4 -6 2 4 6 -3 9 -18 8 -17 -2 -26 3 -30 16 -4 11 -11 17 -16
14 -5 -4 -9 -4 -9 -2 0 3 15 15 33 27 l32 22 -28 -7 c-25 -5 -27 -4 -18 14 15
27 14 36 -3 21 -8 -6 -20 -36 -27 -66 -7 -30 -16 -54 -20 -54 -4 0 -6 9 -4 20
2 13 -2 20 -11 20 -8 0 -14 -10 -14 -25 0 -20 5 -25 24 -25 15 0 26 7 29 20 3
11 11 20 18 20 10 0 10 -3 1 -12 -25 -25 -9 -29 101 -26 108 3 114 4 110 23
-3 17 -2 16 6 -2 14 -30 37 -29 45 2 3 13 16 34 29 46 12 12 16 19 10 15 -20
-11 -15 5 10 33 18 21 18 23 2 9 -21 -17 -21 -17 -17 20 3 20 12 48 21 62 9
14 11 21 4 17 -7 -5 -13 -4 -13 0 0 5 6 15 13 22 10 11 8 11 -11 1 -23 -11
-23 -11 -7 13 17 26 7 45 -13 25z"/>
<path d="M1644 228 c4 -29 9 -70 13 -92 3 -27 2 -36 -6 -32 -7 4 -11 0 -11
-11 0 -20 -59 -95 -60 -76 0 6 5 15 10 18 6 3 10 11 10 17 0 6 -9 -1 -20 -15
-11 -14 -20 -27 -20 -29 0 -2 15 -5 33 -6 25 -2 34 3 42 20 6 13 21 28 35 35
14 6 46 33 71 58 l46 47 70 -1 c51 -1 74 3 83 14 10 13 9 15 -11 13 -13 0 -41
4 -61 10 -26 7 -38 7 -38 0 0 -7 -5 -7 -14 1 -7 6 -24 11 -37 10 -13 0 -34 2
-47 5 -19 4 -22 2 -17 -14 3 -10 0 -22 -6 -26 -8 -4 -9 -3 -5 4 4 7 2 20 -3
29 -8 14 -10 15 -11 3 0 -8 -3 -25 -6 -38 -6 -21 -4 -23 30 -20 36 2 54 13 55
33 0 6 9 11 21 13 14 2 20 -2 20 -15 0 -15 -2 -16 -10 -3 -9 13 -12 12 -22 -5
-15 -27 -93 -105 -104 -105 -5 0 -8 18 -6 41 6 56 -8 169 -20 169 -6 0 -8 -19
-4 -52z"/>
<path d="M3248 95 c-7 -8 -95 -17 -170 -19 -36 0 -69 -4 -73 -8 -4 -4 -13 -4
-21 -1 -8 3 -14 0 -14 -5 0 -14 51 -38 113 -53 50 -12 166 -6 176 9 3 5 15 14
26 20 19 11 19 11 -2 12 -14 0 -23 6 -23 16 0 11 6 13 19 9 11 -3 22 -1 26 4
3 7 0 8 -9 5 -9 -3 -16 -1 -16 5 0 11 -22 15 -32 6z"/>
<path d="M2595 69 c-4 -5 -12 -8 -18 -6 -7 2 -21 0 -32 -6 -11 -6 -60 -12
-110 -14 -49 -1 -101 -6 -115 -9 -14 -4 -95 -8 -180 -10 -85 -2 -163 -3 -172
-3 -10 -1 -18 -5 -18 -11 0 -7 151 -10 434 -10 395 0 437 2 465 18 17 9 31 20
31 25 0 9 -63 8 -165 -2 -90 -10 -109 -6 -102 20 5 20 -8 26 -18 8z"/>
</g>
</svg>
